<svg version="1.1" xmlns="http://www.w3.org/2000/svg" xmlns:xlink="http://www.w3.org/1999/xlink" width="178.8502" height="45.687" viewBox="0,0,178.8502,45.687"><g transform="translate(-150.57474,-157.1565)"><g data-paper-data="{&quot;isPaintingLayer&quot;:true}" fill-rule="nonzero" stroke-linecap="butt" stroke-linejoin="round" stroke-miterlimit="10" stroke-dasharray="" stroke-dashoffset="0" style="mix-blend-mode: normal"><g fill="#ffffff" stroke="#ffffff" stroke-width="15"><path d="M301.99594,173.6795v1.651l-15.499,10.787v-1.238z"/><path d="M301.99594,175.3305h1.07l-15.767,10.787h-0.802z"/><path d="M287.29894,186.1175v-1.238l15.767,-11.2v1.651z"/><path d="M287.29894,184.8795h-0.802l15.499,-11.2h1.07z"/><path d="M290.05494,186.1175v-1.238l16.685,-11.2v1.651z"/><path d="M290.05494,184.8795h-0.837l16.406,-11.2h1.116z"/><path d="M305.62393,173.6795v1.651l-16.406,10.787v-1.238z"/><path d="M305.62393,175.3305h1.116l-16.685,10.787h-0.837z"/><path d="M309.55394,180.6555l-1.977,2.651l-16.894,8.793l1.482,-1.988z"/><path d="M290.68294,192.0995c-0.27934,-0.53466 -0.70367,-1.19167 -1.273,-1.971l16.47,-9.449c0.75933,1.03867 1.325,1.91434 1.697,2.627z"/><path d="M305.87994,180.6795v6.511l-16.47,7.822v-4.884z"/><path d="M289.40994,195.0125h-2.285l15.708,-7.822h3.047z"/><path d="M287.12494,195.0125v-4.151l15.708,-9.206v5.535z"/><path d="M302.83294,181.6555c-0.96067,1.628 -1.90634,2.86834 -2.837,3.721l-14.999,8.275c0.698,-0.63933 1.40733,-1.56933 2.128,-2.79z"/><path d="M284.99694,193.6515c-0.13933,-0.52266 -0.49966,-1.319 -1.081,-2.389l14.639,-9.072c0.77467,1.42667 1.255,2.48866 1.441,3.186z"/><path d="M283.91594,191.2625c0.942,-0.802 1.80834,-1.87167 2.599,-3.209l15.504,-10.142c-1.054,1.78333 -2.20866,3.20967 -3.464,4.279z"/><path d="M286.51494,188.0535h-1.884l14.877,-10.142h2.511z"/><path d="M284.63094,188.0535v-5.093l14.877,-11.839v6.79z"/><path d="M299.50793,171.1215h3.325l-15.708,11.839h-2.494z"/><path d="M287.12494,182.9605v-0.872l15.708,-12.13v1.163z"/><path d="M287.12494,182.0885h-2.738l14.795,-12.13h3.651z"/><path d="M284.38694,182.0885v-2.267l14.795,-12.886v3.023z"/><path d="M299.18194,166.9355h3.651l-15.708,12.886h-2.738z"/><path d="M287.12494,179.8215v-1.709l15.708,-13.456v2.279z"/><path d="M302.83294,164.6565h3.047l-16.47,13.456h-2.285z"/><path d="M305.87994,164.6565v2.279l-16.47,12.886v-1.709z"/><path d="M305.87994,166.9355h3.488l-17.342,12.886h-2.616z"/><path d="M309.36794,166.9355v3.023l-17.342,12.13v-2.267z"/><path d="M292.02594,182.0885h-2.616l16.47,-12.13h3.488z"/><path d="M305.87994,169.9585v1.163l-16.47,11.839v-0.872z"/><path d="M305.87994,171.1215h3.488l-17.342,11.839h-2.616z"/><path d="M309.36794,171.1215v6.79l-17.342,10.142v-5.093z"/><path d="M292.02594,188.0535h-1.866l16.72,-10.142h2.488z"/><path d="M306.87994,177.9115c1.19333,1.16267 2.08466,2.07734 2.674,2.744l-17.389,9.456c-0.44133,-0.5 -1.10967,-1.186 -2.005,-2.058z"/><path d="M298.04294,184.5305v-0.75l19.348,-11.566v1z"/><path d="M298.04294,183.7805h-2.895l18.382,-11.566h3.861z"/><path d="M313.52994,172.2145v1l-18.382,11.316v-0.75z"/><path d="M313.52994,173.2145h3.861l-19.348,11.316h-2.895z"/><path d="M298.04294,187.0415v-0.75l19.348,-10.728v1z"/><path d="M298.04294,186.2915h-2.895l18.382,-10.728h3.861z"/><path d="M313.52994,175.5635v1l-18.382,10.478v-0.75z"/><path d="M313.52994,176.5635h3.861l-19.348,10.478h-2.895z"/><path d="M298.04294,189.5535v-0.75l19.348,-9.892v1z"/><path d="M298.04294,188.8035h-2.895l18.382,-9.892h3.861z"/><path d="M313.52994,178.9115v1l-18.382,9.642v-0.75z"/><path d="M313.52994,179.9115h3.861l-19.348,9.642h-2.895z"/><path d="M300.50194,191.4365h-1.883l19.539,-9.013h2.511z"/><path d="M318.15794,182.4235c1.76734,1.28666 3.023,2.32534 3.767,3.116l-20.481,8.234c-0.558,-0.59267 -1.49967,-1.37166 -2.825,-2.337z"/><path d="M321.92494,185.5395l-2.697,1.721l-19.807,7.804l2.023,-1.291z"/><path d="M299.42094,195.0645c-0.54666,-0.63933 -1.45367,-1.46466 -2.721,-2.476l18.9,-8.631c1.69,1.34933 2.89934,2.45034 3.628,3.303z"/><path d="M296.69994,192.5885l1.866,-1.152l19.522,-9.013l-2.488,1.534z"/><path d="M298.56593,191.4365h-4.011l18.185,-9.013h5.348z"/><path d="M312.73994,182.4235l2.302,1.534l-18.761,8.631l-1.726,-1.152z"/><path d="M315.04193,183.9575c-0.65134,0.62067 -1.473,1.241 -2.465,1.861l-18.144,8.165c0.744,-0.46534 1.36,-0.93034 1.848,-1.395z"/><path d="M312.57694,185.8185c-0.992,0.62 -1.93767,1.10834 -2.837,1.465l-17.435,7.799c0.67467,-0.268 1.384,-0.63433 2.128,-1.099z"/><path d="M292.30494,195.0825c-0.53467,-0.60467 -1.09866,-1.14533 -1.692,-1.622l16.871,-8.34c0.79066,0.636 1.54267,1.357 2.256,2.163z"/><path d="M290.61294,193.4605c1.27934,-0.47734 2.419,-1.152 3.419,-2.024l18.01,-9.013c-1.33333,1.16267 -2.85267,2.06167 -4.558,2.697z"/><path d="M294.03193,191.4365h-1.204l17.61,-9.013h1.604z"/><path d="M292.82794,191.4365v-9.54l17.61,-12.193v12.72z"/><path d="M310.43794,169.7035h2.953l-18.348,12.193h-2.215z"/><path d="M295.04294,181.8965c0.058,-0.32533 0.10466,-0.66233 0.14,-1.011l18.394,-12.531c-0.04667,0.46466 -0.10866,0.91433 -0.186,1.349z"/><path d="M295.18294,180.8855h-2.948l17.412,-12.531h3.93z"/><path d="M292.23494,180.8855v-2.198l17.412,-13.263v2.93z"/><path d="M309.64694,165.4245h11.697l-20.336,13.263h-8.773z"/><path d="M321.34394,165.4245v2.93l-20.336,12.531v-2.198z"/><path d="M301.00793,180.8855h-3.105l19.302,-12.531h4.139z"/><path d="M317.20493,168.3545c-0.10866,0.29467 -0.264,0.74433 -0.466,1.349l-19.184,12.193c0.15067,-0.45334 0.26666,-0.79033 0.348,-1.011z"/><path d="M316.73893,169.7035h3.93l-20.167,12.193h-2.947z"/><path d="M320.66894,169.7035v12.72l-20.167,9.013v-9.54z"/><path d="M281.04394,170.2615v6.162l-10.261,10.514v-4.622z"/><path d="M281.04394,176.4235c2.31,-1.28666 4.17034,-2.92233 5.581,-4.907l-11.656,11.741c-1.058,1.488 -2.45333,2.71466 -4.186,3.68z"/><path d="M274.96894,183.2575h-3.715l10.418,-11.741h4.953z"/><path d="M271.25394,183.2575v-1.849l10.418,-12.357v2.465z"/><path d="M281.67193,169.0515c-0.07733,0.124 -0.186,0.32566 -0.326,0.605l-10.336,12.205c0.10466,-0.20934 0.186,-0.36033 0.244,-0.453z"/><path d="M281.34594,169.6565c-0.13934,0.27934 -0.24,0.481 -0.302,0.605l-10.261,12.054c0.04666,-0.09333 0.12233,-0.24466 0.227,-0.454z"/><path d="M295.22893,172.9815l2.581,2.442l-14.452,10.764l-1.936,-1.832z"/><path d="M297.80994,175.4235c-2.34066,1.84466 -3.67367,2.88334 -3.999,3.116l-13.453,9.985c0.244,-0.17467 1.244,-0.95367 3,-2.337z"/><path d="M293.81093,178.5395c1.10067,2.51134 2.55,4.34067 4.348,5.488l-14.54,8.613c-1.34866,-0.86067 -2.43566,-2.23267 -3.261,-4.116z"/><path d="M298.15894,184.0275c-0.93,0.77534 -1.75167,1.76766 -2.465,2.977l-13.923,7.868c0.53467,-0.90667 1.15067,-1.65067 1.848,-2.232z"/><path d="M281.77094,194.8725c-1.33733,-0.988 -2.38967,-2.29 -3.157,-3.906l12.871,-9.171c1.02333,2.15466 2.42633,3.891 4.209,5.209z"/><path d="M278.61393,190.9665c-0.76734,-1.61667 -1.366,-3.59333 -1.796,-5.93l12.272,-11.148c0.57334,3.116 1.37167,5.75167 2.395,7.907z"/><path d="M289.08993,173.8885c-0.54266,0.698 -1.10066,1.34933 -1.674,1.954l-11.854,10.659c0.43,-0.454 0.84866,-0.94234 1.256,-1.465z"/><path d="M287.41594,175.8425v6.72l-11.854,8.979v-5.04z"/><path d="M287.41594,182.5625c0.40267,-0.07734 1.05367,-0.209 1.953,-0.395l-12.342,9.078c-0.67467,0.13933 -1.163,0.238 -1.465,0.296z"/><path d="M289.36893,182.1675c0.89934,-0.186 1.58134,-0.32566 2.046,-0.419l-12.853,9.183c-0.34933,0.06933 -0.861,0.174 -1.535,0.314z"/><path d="M291.41494,181.7485l0.326,3.093l-12.935,8.409l-0.244,-2.319z"/><path d="M278.80593,193.2505c-1.52333,0.36067 -3.79666,0.86667 -6.82,1.518l10.663,-7.904c4.03066,-0.868 7.06133,-1.54234 9.092,-2.023z"/><path d="M271.98594,194.7685l-0.715,-2.46l10.424,-8.723l0.954,3.279z"/><path d="M281.69494,183.5855c0.23266,-0.03066 1.04667,-0.17766 2.442,-0.441l-11.034,8.833c-1.04666,0.198 -1.65733,0.30833 -1.832,0.331z"/><path d="M273.10294,191.9775v-3.314l11.034,-9.938v4.419z"/><path d="M273.10294,188.6635c-0.58133,0.40733 -0.97667,0.669 -1.186,0.785l10.639,-9.676c0.27867,-0.15534 0.80567,-0.50433 1.581,-1.047z"/><path d="M271.91693,189.4485c-0.26734,-0.45334 -0.64533,-0.98233 -1.134,-1.587l10.261,-10.205c0.65134,0.806 1.15533,1.51133 1.512,2.116z"/><path d="M281.04394,177.6565v9.487l-10.261,7.834v-7.116z"/><path d="M270.78294,194.9775h-2.477l9.436,-7.834h3.302z"/><path d="M268.30593,194.9775v-8.912l9.436,-10.805v11.883z"/><path d="M268.30593,186.0655c-0.34866,0.44134 -0.69166,0.83067 -1.029,1.168l9.093,-10.415c0.44934,-0.44933 0.90666,-0.96866 1.372,-1.558z"/><path d="M267.27693,187.2335c-0.12734,-0.33733 -0.33066,-0.79666 -0.61,-1.378l8.889,-10.874c0.372,0.77534 0.64334,1.38767 0.814,1.837z"/><path d="M266.66693,185.8555c-0.27933,-0.59267 -0.52366,-1.046 -0.733,-1.36l8.645,-11.328c0.27934,0.41867 0.605,1.02334 0.977,1.814z"/><path d="M274.57894,173.1675c1.07,-1.02266 2.08566,-2.29366 3.047,-3.813l-9.407,12.281c-0.72066,1.13933 -1.48234,2.09266 -2.285,2.86z"/><path d="M268.21894,181.6355c0.72134,-1.14 1.30267,-2.31434 1.744,-3.523l9.988,-13.456c-0.58934,1.61266 -1.36434,3.17866 -2.325,4.698z"/><path d="M279.95094,164.6565l3.232,1.047l-10.795,13.193l-2.425,-0.784z"/><path d="M283.18294,165.7035c-0.248,0.66666 -0.62767,1.53467 -1.139,2.604l-10.511,12.543c0.384,-0.80266 0.669,-1.454 0.855,-1.954z"/><path d="M282.04394,168.3075h5.651l-11.924,12.543h-4.238z"/><path d="M275.77094,180.8505v-2.529l11.924,-13.386v3.372z"/><path d="M287.69494,164.9355h3.511l-12.801,13.386h-2.634z"/><path d="M291.20594,164.9355v3.372l-12.801,12.543v-2.529z"/><path d="M291.20594,168.3075h5.93l-14.284,12.543h-4.447z"/><path d="M297.13594,168.3075v3.209l-14.284,11.741v-2.407z"/><path d="M282.85194,183.2575h-3.924l12.976,-11.741h5.232z"/><path d="M291.90394,171.5165c0.21666,1.47333 0.49566,2.83766 0.837,4.093l-13.185,10.717c-0.256,-0.94134 -0.46533,-1.96433 -0.628,-3.069z"/><path d="M279.55593,186.3265c0.744,-0.686 1.366,-1.343 1.866,-1.971l13.807,-11.374c-0.66666,0.83733 -1.496,1.71334 -2.488,2.628z"/><path d="M258.99893,166.5635h4.465l-5.866,12.979h-3.349z"/><path d="M263.46394,166.5635l-0.093,6l-5.843,11.479l0.07,-4.5z"/><path d="M263.37094,172.5635l8.953,4.767l-8.081,10.287l-6.715,-3.575z"/><path d="M272.32394,177.3305l-1.512,3.721l-7.703,9.356l1.134,-2.79z"/><path d="M263.10893,190.4075l-5.616,-3.209l5.831,-10.426l7.488,4.279z"/><path d="M263.32394,176.7725l-0.139,9.046l-5.796,8.165l0.104,-6.785z"/><path d="M257.38894,193.9835h-3.279l4.703,-8.165h4.372z"/><path d="M254.10994,193.9835l0.139,-14.441l4.75,-12.979l-0.186,19.255z"/><path d="M235.74394,167.9125l13.697,-0.674l-2.36,12.81l-10.273,0.505z"/><path d="M249.44094,167.2385l1.814,2.767l-2.814,12.118l-1.36,-2.075z"/><path d="M248.44094,182.1235c-1.09267,1.616 -2.24934,3.174 -3.47,4.674l1.656,-10.56c1.628,-2 3.17067,-4.07734 4.628,-6.232z"/><path d="M246.62694,176.2375l6.628,4.721l-3.314,9.38l-4.97,-3.541z"/><path d="M249.94094,190.3385l-2.058,2.703l2.628,-8.479l2.744,-3.604z"/><path d="M247.88294,193.0415l-4.779,-4.151l1.035,-9.862l6.372,5.534z"/><path d="M243.10394,188.8905c-0.08133,0.08133 -0.15667,0.157 -0.226,0.227l0.959,-9.787c0.09267,-0.09333 0.19333,-0.194 0.302,-0.302z"/><path d="M242.87794,189.1175c-1.72134,1.72066 -3.45967,3.41233 -5.215,5.075l-0.779,-8.095c2.34067,-2.21667 4.65833,-4.47233 6.953,-6.767z"/><path d="M237.66294,194.1925l-2.076,-2.581l-1.4704,-8.956l2.7674,3.442z"/><path d="M234.11654,182.6555c2.27893,-1.78267 4.47274,-3.68167 6.5814,-5.697l-0.175,10.38c-1.58133,1.51134 -3.22666,2.93567 -4.936,4.273z"/><path d="M240.69794,176.9585c1.82933,-1.752 3.54233,-3.628 5.139,-5.628l-1.459,11.787c-1.198,1.5 -2.483,2.907 -3.855,4.221z"/><path d="M244.37794,183.1175l-7.57,0.349l-1.064,-11.671l10.093,-0.465z"/><path d="M235.74394,171.7955v-3.883l1.064,12.641v2.913z"/><path d="M213.11784,169.7965l5.4183,-0.117l5.3659,12.2l-4.0637,0.087z"/><path d="M218.53614,169.6795l-0.5581,-3.79l5.5055,13.147l0.4185,2.843z"/><path d="M217.97804,165.8895l4.3021,-0.465l4.4299,13.263l-3.2265,0.349z"/><path d="M226.71004,178.6875l0.4535,3.122l-4.2788,-12.223l-0.6046,-4.162z"/><path d="M222.88474,169.5865l7.3949,-0.163l2.43,12.264l-5.5461,0.122z"/><path d="M232.70964,181.6875l-0.0697,3.035l-2.4534,-11.252l0.0931,-4.047z"/><path d="M232.63994,184.7225l-5.023,0.069l-4.1276,-11.228l6.6972,-0.093z"/><path d="M227.61694,184.7915l0.3489,2.337l-4.0114,-10.449l-0.4651,-3.116z"/><path d="M223.95444,176.6795l6.2321,-0.116l2.4534,10.478l-4.6741,0.087z"/><path d="M232.63994,187.0415l-0.0872,3.018l-2.4824,-9.473l0.1162,-4.023z"/><path d="M232.55274,190.0595l-4.1335,0.069l-3.8602,-9.449l5.5113,-0.093z"/><path d="M228.41924,190.1285l0.7151,4.692l-3.6219,-7.886l-0.9534,-6.255z"/><path d="M229.13434,194.8205l-3.2963,0.506l-4.7207,-7.718l4.3951,-0.674z"/><path d="M221.11734,187.6085l-0.9999,-6.883l4.9706,9.438l0.75,5.163z"/><path d="M225.08804,190.1635l-5.3892,0.087l-6.767,-9.409l7.1856,-0.116z"/><path d="M212.93184,180.8415l0.093,-3.93l6.7438,10.392l-0.0698,2.947z"/><path d="M213.02484,176.9115l6.5345,-0.139l5.1102,10.426l-4.9009,0.105z"/><path d="M219.55934,176.7725l-0.4651,-3.14l5.2264,11.212l0.3489,2.354z"/><path d="M224.32064,184.8445l-4.552,0.069l-6.7438,-11.188l6.0694,-0.093z"/><path d="M213.02484,173.7255l0.093,-3.929l6.7205,12.17l-0.0697,2.947z"/><path d="M214.55384,179.8565l0.0698,2.93l-8.4588,-11.897l-0.0931,-3.907z"/><path d="M214.62364,182.7865l-9.453,0.331l-11.6097,-11.787l12.6039,-0.441z"/><path d="M193.56094,171.3305l-0.0233,-3.837l11.6156,12.746l0.0174,2.878z"/><path d="M193.53764,167.4935l12.5341,-0.511l8.4821,12.874l-9.4006,0.383z"/><path d="M190.79364,174.2845l18.278,-0.651l7.732,11.211l-13.7084,0.488z"/><path d="M216.80364,184.8445v2.843l-7.732,-10.264v-3.79z"/><path d="M216.80364,187.6875l-5.0403,0.139l-9.4123,-10.217l6.7206,-0.186z"/><path d="M211.76334,187.8265c-0.11633,0.884 -0.29076,1.762 -0.5233,2.634l-9.5866,-9.34c0.31007,-1.16267 0.5426,-2.333 0.6976,-3.511z"/><path d="M211.24004,190.4605c-0.22087,0.86 -0.4999,1.703 -0.8371,2.529l-9.8657,-8.497c0.4496,-1.10066 0.82166,-2.22467 1.1162,-3.372z"/><path d="M210.40294,192.9895c-0.3256,0.82533 -0.73837,1.61 -1.2383,2.354l-10.2785,-7.711c0.66666,-0.99266 1.21703,-2.03933 1.6511,-3.14z"/><path d="M209.16464,195.3435l-2.9998,-1.29l-11.2784,-8.142l3.9997,1.721z"/><path d="M194.88644,185.9115c0.83713,-1.20934 1.50376,-2.51166 1.9999,-3.907l10.7784,9.118c-0.37206,1.04666 -0.87203,2.02366 -1.4999,2.931z"/><path d="M196.88634,182.0045c0.51154,-1.39533 0.9146,-2.82167 1.2092,-4.279l10.4761,10.188c-0.22093,1.09333 -0.52323,2.163 -0.9069,3.209z"/><path d="M208.57164,187.9135l-5.4067,0.14l-12.2783,-10.142l7.2089,-0.186z"/><path d="M190.88664,177.9115l-0.093,-3.627l12.3016,11.048l0.0697,2.721z"/><path d="M174.02724,184.9575v-17.719l16.4932,12.81v13.289z"/><path d="M174.02724,167.2385h5.0927l15.22,12.81h-3.8195z"/><path d="M179.11994,167.2385c2.82154,0 5.02293,0.72066 6.6042,2.162l13.569,12.27c-1.186,-1.08133 -2.83706,-1.622 -4.9532,-1.622z"/><path d="M199.29314,181.6705c1.18594,1.06933 1.7789,2.72034 1.7789,4.953l-12.9759,-10.619c0,-2.976 -0.79066,-5.17733 -2.372,-6.604z"/><path d="M201.07204,186.6235c0,2.232 -0.58716,3.912 -1.7615,5.04l-13.5631,-8.938c1.5658,-1.504 2.3487,-3.74433 2.3487,-6.721z"/><path d="M199.31054,191.6635c-1.17434,1.116 -2.77307,1.674 -4.7962,1.674l-15.1619,-8.38c2.69753,0 4.8292,-0.744 6.395,-2.232z"/><path d="M194.51434,193.3375h-3.9939l-16.4932,-8.38h5.3252z"/><path d="M178.28274,181.5395h0.5814l15.2839,9.235h-0.436z"/><path d="M178.86414,181.5395c1.55026,0 2.75173,-0.42633 3.6044,-1.279l14.3829,9.554c-0.63953,0.64 -1.54066,0.96 -2.7034,0.96z"/><path d="M182.46854,180.2605c0.85267,-0.85267 1.279,-2.27133 1.279,-4.256l14.0631,10.619c0,1.488 -0.31974,2.55166 -0.9592,3.191z"/><path d="M183.74754,176.0045c0,-1.984 -0.42634,-3.37134 -1.279,-4.162l14.3829,11.659c0.63947,0.59267 0.9592,1.63334 0.9592,3.122z"/><path d="M196.85144,183.5015c-0.62787,-0.60467 -1.529,-0.907 -2.7034,-0.907l-15.2839,-11.961c1.5658,0 2.76727,0.403 3.6044,1.209z"/><path d="M194.14804,182.5945h-0.436l-15.4293,-11.961h0.5814z"/><path d="M193.71204,182.5945v8.18l-15.4293,-9.235v-10.906z"/><path d="M183.10804,193.5825c-1.9882,0 -3.50554,-0.61633 -4.552,-1.849l-20.4813,-8.915c1.39526,1.64334 3.4184,2.465 6.0694,2.465z"/><path d="M158.07474,182.8185l1.9533,-2.674l19.993,9.583l-1.465,2.006z"/><path d="M160.02804,180.1445c1.19374,1.14733 2.41846,1.721 3.6742,1.721l19.0745,9.153c-0.94187,0 -1.86043,-0.43033 -2.7557,-1.291z"/><path d="M163.70224,181.8655c0.8372,0 1.4961,-0.17067 1.9767,-0.512l18.5802,9.281c-0.3604,0.256 -0.85453,0.384 -1.4824,0.384z"/><path d="M165.67894,181.3535c0.49606,-0.35666 0.7441,-0.86067 0.7441,-1.512l18.3942,9.659c0,0.48866 -0.18604,0.86667 -0.5581,1.134z"/><path d="M166.42304,179.8415c0,-0.83667 -0.3178,-1.449 -0.9534,-1.837l18.6326,10.119c0.47666,0.29066 0.715,0.74966 0.715,1.377z"/><path d="M184.10224,188.1235c-0.47673,-0.30266 -1.37204,-0.454 -2.6859,-0.454l-19.5279,-10.269c1.7518,0 2.94554,0.20134 3.5812,0.604z"/><path d="M161.88844,177.4005v-2.977l19.5279,11.014v2.232z"/><path d="M161.88844,174.4235c1.44173,0 2.46493,-0.20133 3.0696,-0.604l18.7605,11.164c-0.45346,0.30266 -1.22087,0.454 -2.3022,0.454z"/><path d="M164.95804,173.8195c0.6046,-0.40333 0.9069,-0.977 0.9069,-1.721l18.5337,11.595c0,0.558 -0.2267,0.988 -0.6801,1.29z"/><path d="M165.86494,172.0985c0,-0.60467 -0.1783,-1.07 -0.5349,-1.396l18.6675,11.944c0.2674,0.24466 0.4011,0.59366 0.4011,1.047z"/><path d="M183.99754,182.6465c-0.2558,-0.244 -0.62787,-0.366 -1.1162,-0.366l-19.0395,-12.066c0.65106,0 1.14714,0.16267 1.4882,0.488z"/><path d="M182.88134,182.2805c-0.72087,0 -1.51153,0.372 -2.372,1.116l-19.8301,-11.694c1.1472,-0.992 2.2014,-1.488 3.1626,-1.488z"/><path d="M160.67924,171.7025l-2.1394,-2.604l20.365,12.345l1.6045,1.953z"/><path d="M158.53984,169.0985c1.7518,-1.45734 3.58886,-2.186 5.5112,-2.186l18.9873,12.891c-1.4418,0 -2.81964,0.54667 -4.1335,1.64z"/><path d="M164.05104,166.9125c1.87587,0 3.3564,0.42633 4.4416,1.279l17.8769,12.572c-0.81393,-0.64 -1.92433,-0.96 -3.3312,-0.96z"/><path d="M186.36954,180.7635c0.81386,0.63933 1.2208,1.54033 1.2208,2.703l-17.4699,-11.671c0,-1.55 -0.5426,-2.75134 -1.6278,-3.604z"/><path d="M187.59034,183.4665c0,1.372 -0.71506,2.34867 -2.1452,2.93l-18.1849,-10.694c1.9068,-0.77534 2.8602,-2.07766 2.8602,-3.907z"/><path d="M185.44514,186.3965v0.087l-18.1849,-10.665v-0.116z"/><path d="M185.44514,186.4835c0.779,0.244 1.40106,0.63934 1.8662,1.186l-17.5629,-10.269c-0.62014,-0.72867 -1.44953,-1.256 -2.4882,-1.582z"/><path d="M187.31134,187.6695c0.46507,0.53466 0.6976,1.215 0.6976,2.041l-17.3303,-9.589c0,-1.10134 -0.31006,-2.00834 -0.9302,-2.721z"/><path d="M188.00894,189.7105c0,1.19734 -0.4709,2.145 -1.4127,2.843l-17.8013,-8.642c1.2558,-0.93 1.8837,-2.19333 1.8837,-3.79z"/><path d="M186.59624,192.5535c-0.9418,0.686 -2.10453,1.029 -3.4882,1.029l-18.9639,-8.299c1.8448,0 3.39507,-0.45734 4.6508,-1.372z"/></g><g fill="#454545" stroke="#454545" stroke-width="10"><path d="M301.996,173.6795v1.651l-15.499,10.787v-1.238z"/><path d="M301.996,175.3305h1.07l-15.767,10.787h-0.802z"/><path d="M287.299,186.1175v-1.238l15.767,-11.2v1.651z"/><path d="M287.299,184.8795h-0.802l15.499,-11.2h1.07z"/><path d="M290.05501,186.1175v-1.238l16.685,-11.2v1.651z"/><path d="M290.05501,184.8795h-0.837l16.406,-11.2h1.116z"/><path d="M305.62401,173.6795v1.651l-16.406,10.787v-1.238z"/><path d="M305.62401,175.3305h1.116l-16.685,10.787h-0.837z"/><path d="M309.554,180.6555l-1.977,2.651l-16.894,8.793l1.482,-1.988z"/><path d="M290.683,192.0995c-0.27933,-0.53466 -0.70366,-1.19167 -1.273,-1.971l16.47,-9.449c0.75934,1.03867 1.325,1.91434 1.697,2.627z"/><path d="M305.88001,180.6795v6.511l-16.47,7.822v-4.884z"/><path d="M289.41001,195.0125h-2.285l15.708,-7.822h3.047z"/><path d="M287.12501,195.0125v-4.151l15.708,-9.206v5.535z"/><path d="M302.83301,181.6555c-0.96067,1.628 -1.90634,2.86834 -2.837,3.721l-14.999,8.275c0.698,-0.63933 1.40733,-1.56933 2.128,-2.79z"/><path d="M284.99701,193.6515c-0.13934,-0.52266 -0.49967,-1.319 -1.081,-2.389l14.639,-9.072c0.77467,1.42667 1.255,2.48866 1.441,3.186z"/><path d="M283.91601,191.2625c0.942,-0.802 1.80833,-1.87167 2.599,-3.209l15.504,-10.142c-1.054,1.78333 -2.20866,3.20967 -3.464,4.279z"/><path d="M286.515,188.0535h-1.884l14.877,-10.142h2.511z"/><path d="M284.631,188.0535v-5.093l14.877,-11.839v6.79z"/><path d="M299.50801,171.1215h3.325l-15.708,11.839h-2.494z"/><path d="M287.12501,182.9605v-0.872l15.708,-12.13v1.163z"/><path d="M287.12501,182.0885h-2.738l14.795,-12.13h3.651z"/><path d="M284.38701,182.0885v-2.267l14.795,-12.886v3.023z"/><path d="M299.18201,166.9355h3.651l-15.708,12.886h-2.738z"/><path d="M287.12501,179.8215v-1.709l15.708,-13.456v2.279z"/><path d="M302.83301,164.6565h3.047l-16.47,13.456h-2.285z"/><path d="M305.88001,164.6565v2.279l-16.47,12.886v-1.709z"/><path d="M305.88001,166.9355h3.488l-17.342,12.886h-2.616z"/><path d="M309.36801,166.9355v3.023l-17.342,12.13v-2.267z"/><path d="M292.02601,182.0885h-2.616l16.47,-12.13h3.488z"/><path d="M305.88001,169.9585v1.163l-16.47,11.839v-0.872z"/><path d="M305.88001,171.1215h3.488l-17.342,11.839h-2.616z"/><path d="M309.36801,171.1215v6.79l-17.342,10.142v-5.093z"/><path d="M292.02601,188.0535h-1.866l16.72,-10.142h2.488z"/><path d="M306.88001,177.9115c1.19334,1.16267 2.08466,2.07734 2.674,2.744l-17.389,9.456c-0.44133,-0.5 -1.10967,-1.186 -2.005,-2.058z"/><path d="M298.04301,184.5305v-0.75l19.348,-11.566v1z"/><path d="M298.04301,183.7805h-2.895l18.382,-11.566h3.861z"/><path d="M313.53,172.2145v1l-18.382,11.316v-0.75z"/><path d="M313.53,173.2145h3.861l-19.348,11.316h-2.895z"/><path d="M298.04301,187.0415v-0.75l19.348,-10.728v1z"/><path d="M298.04301,186.2915h-2.895l18.382,-10.728h3.861z"/><path d="M313.53,175.5635v1l-18.382,10.478v-0.75z"/><path d="M313.53,176.5635h3.861l-19.348,10.478h-2.895z"/><path d="M298.04301,189.5535v-0.75l19.348,-9.892v1z"/><path d="M298.04301,188.8035h-2.895l18.382,-9.892h3.861z"/><path d="M313.53,178.9115v1l-18.382,9.642v-0.75z"/><path d="M313.53,179.9115h3.861l-19.348,9.642h-2.895z"/><path d="M300.50201,191.4365h-1.883l19.539,-9.013h2.511z"/><path d="M318.15801,182.4235c1.76734,1.28666 3.023,2.32534 3.767,3.116l-20.481,8.234c-0.558,-0.59267 -1.49967,-1.37166 -2.825,-2.337z"/><path d="M321.92501,185.5395l-2.697,1.721l-19.807,7.804l2.023,-1.291z"/><path d="M299.42101,195.0645c-0.54667,-0.63933 -1.45367,-1.46466 -2.721,-2.476l18.9,-8.631c1.69,1.34933 2.89934,2.45034 3.628,3.303z"/><path d="M296.70001,192.5885l1.866,-1.152l19.522,-9.013l-2.488,1.534z"/><path d="M298.56601,191.4365h-4.011l18.185,-9.013h5.348z"/><path d="M312.74001,182.4235l2.302,1.534l-18.761,8.631l-1.726,-1.152z"/><path d="M315.04201,183.9575c-0.65134,0.62067 -1.473,1.241 -2.465,1.861l-18.144,8.165c0.744,-0.46534 1.36,-0.93034 1.848,-1.395z"/><path d="M312.57701,185.8185c-0.992,0.62 -1.93766,1.10834 -2.837,1.465l-17.435,7.799c0.67467,-0.268 1.384,-0.63433 2.128,-1.099z"/><path d="M292.30501,195.0825c-0.53467,-0.60467 -1.09866,-1.14533 -1.692,-1.622l16.871,-8.34c0.79066,0.636 1.54267,1.357 2.256,2.163z"/><path d="M290.61301,193.4605c1.27933,-0.47734 2.419,-1.152 3.419,-2.024l18.01,-9.013c-1.33334,1.16267 -2.85267,2.06167 -4.558,2.697z"/><path d="M294.03201,191.4365h-1.204l17.61,-9.013h1.604z"/><path d="M292.828,191.4365v-9.54l17.61,-12.193v12.72z"/><path d="M310.438,169.7035h2.953l-18.348,12.193h-2.215z"/><path d="M295.04301,181.8965c0.058,-0.32533 0.10467,-0.66233 0.14,-1.011l18.394,-12.531c-0.04666,0.46466 -0.10866,0.91433 -0.186,1.349z"/><path d="M295.183,180.8855h-2.948l17.412,-12.531h3.93z"/><path d="M292.23501,180.8855v-2.198l17.412,-13.263v2.93z"/><path d="M309.64701,165.4245h11.697l-20.336,13.263h-8.773z"/><path d="M321.34401,165.4245v2.93l-20.336,12.531v-2.198z"/><path d="M301.00801,180.8855h-3.105l19.302,-12.531h4.139z"/><path d="M317.20501,168.3545c-0.10866,0.29467 -0.264,0.74433 -0.466,1.349l-19.184,12.193c0.15067,-0.45334 0.26666,-0.79033 0.348,-1.011z"/><path d="M316.73901,169.7035h3.93l-20.167,12.193h-2.947z"/><path d="M320.669,169.7035v12.72l-20.167,9.013v-9.54z"/><path d="M281.044,170.2615v6.162l-10.261,10.514v-4.622z"/><path d="M281.044,176.4235c2.31,-1.28666 4.17034,-2.92233 5.581,-4.907l-11.656,11.741c-1.058,1.488 -2.45334,2.71466 -4.186,3.68z"/><path d="M274.96901,183.2575h-3.715l10.418,-11.741h4.953z"/><path d="M271.25401,183.2575v-1.849l10.418,-12.357v2.465z"/><path d="M281.67201,169.0515c-0.07733,0.124 -0.186,0.32566 -0.326,0.605l-10.336,12.205c0.10467,-0.20934 0.186,-0.36033 0.244,-0.453z"/><path d="M281.34601,169.6565c-0.13933,0.27934 -0.24,0.481 -0.302,0.605l-10.261,12.054c0.04667,-0.09333 0.12234,-0.24466 0.227,-0.454z"/><path d="M295.22901,172.9815l2.581,2.442l-14.452,10.764l-1.936,-1.832z"/><path d="M297.81001,175.4235c-2.34067,1.84466 -3.67367,2.88334 -3.999,3.116l-13.453,9.985c0.244,-0.17467 1.244,-0.95367 3,-2.337z"/><path d="M293.81101,178.5395c1.10066,2.51134 2.55,4.34067 4.348,5.488l-14.54,8.613c-1.34866,-0.86067 -2.43566,-2.23267 -3.261,-4.116z"/><path d="M298.159,184.0275c-0.93,0.77534 -1.75167,1.76766 -2.465,2.977l-13.923,7.868c0.53467,-0.90667 1.15067,-1.65067 1.848,-2.232z"/><path d="M281.77101,194.8725c-1.33734,-0.988 -2.38967,-2.29 -3.157,-3.906l12.871,-9.171c1.02333,2.15466 2.42633,3.891 4.209,5.209z"/><path d="M278.61401,190.9665c-0.76734,-1.61667 -1.366,-3.59333 -1.796,-5.93l12.272,-11.148c0.57333,3.116 1.37167,5.75167 2.395,7.907z"/><path d="M289.09001,173.8885c-0.54267,0.698 -1.10067,1.34933 -1.674,1.954l-11.854,10.659c0.43,-0.454 0.84866,-0.94234 1.256,-1.465z"/><path d="M287.41601,175.8425v6.72l-11.854,8.979v-5.04z"/><path d="M287.41601,182.5625c0.40266,-0.07734 1.05367,-0.209 1.953,-0.395l-12.342,9.078c-0.67467,0.13933 -1.163,0.238 -1.465,0.296z"/><path d="M289.36901,182.1675c0.89934,-0.186 1.58133,-0.32566 2.046,-0.419l-12.853,9.183c-0.34933,0.06933 -0.861,0.174 -1.535,0.314z"/><path d="M291.41501,181.7485l0.326,3.093l-12.935,8.409l-0.244,-2.319z"/><path d="M278.80601,193.2505c-1.52333,0.36067 -3.79667,0.86667 -6.82,1.518l10.663,-7.904c4.03066,-0.868 7.06133,-1.54234 9.092,-2.023z"/><path d="M271.986,194.7685l-0.715,-2.46l10.424,-8.723l0.954,3.279z"/><path d="M281.69501,183.5855c0.23266,-0.03066 1.04666,-0.17766 2.442,-0.441l-11.034,8.833c-1.04667,0.198 -1.65733,0.30833 -1.832,0.331z"/><path d="M273.10301,191.9775v-3.314l11.034,-9.938v4.419z"/><path d="M273.10301,188.6635c-0.58134,0.40733 -0.97667,0.669 -1.186,0.785l10.639,-9.676c0.27866,-0.15534 0.80566,-0.50433 1.581,-1.047z"/><path d="M271.91701,189.4485c-0.26734,-0.45334 -0.64533,-0.98233 -1.134,-1.587l10.261,-10.205c0.65134,0.806 1.15534,1.51133 1.512,2.116z"/><path d="M281.044,177.6565v9.487l-10.261,7.834v-7.116z"/><path d="M270.78301,194.9775h-2.477l9.436,-7.834h3.302z"/><path d="M268.30601,194.9775v-8.912l9.436,-10.805v11.883z"/><path d="M268.30601,186.0655c-0.34866,0.44134 -0.69167,0.83067 -1.029,1.168l9.093,-10.415c0.44934,-0.44933 0.90667,-0.96866 1.372,-1.558z"/><path d="M267.27701,187.2335c-0.12734,-0.33733 -0.33067,-0.79666 -0.61,-1.378l8.889,-10.874c0.372,0.77534 0.64333,1.38767 0.814,1.837z"/><path d="M266.66701,185.8555c-0.27934,-0.59267 -0.52366,-1.046 -0.733,-1.36l8.645,-11.328c0.27933,0.41867 0.605,1.02334 0.977,1.814z"/><path d="M274.57901,173.1675c1.07,-1.02266 2.08566,-2.29366 3.047,-3.813l-9.407,12.281c-0.72067,1.13933 -1.48234,2.09266 -2.285,2.86z"/><path d="M268.21901,181.6355c0.72133,-1.14 1.30267,-2.31434 1.744,-3.523l9.988,-13.456c-0.58934,1.61266 -1.36433,3.17866 -2.325,4.698z"/><path d="M279.95101,164.6565l3.232,1.047l-10.795,13.193l-2.425,-0.784z"/><path d="M283.183,165.7035c-0.248,0.66666 -0.62766,1.53467 -1.139,2.604l-10.511,12.543c0.384,-0.80266 0.669,-1.454 0.855,-1.954z"/><path d="M282.044,168.3075h5.651l-11.924,12.543h-4.238z"/><path d="M275.77101,180.8505v-2.529l11.924,-13.386v3.372z"/><path d="M287.69501,164.9355h3.511l-12.801,13.386h-2.634z"/><path d="M291.20601,164.9355v3.372l-12.801,12.543v-2.529z"/><path d="M291.20601,168.3075h5.93l-14.284,12.543h-4.447z"/><path d="M297.13601,168.3075v3.209l-14.284,11.741v-2.407z"/><path d="M282.852,183.2575h-3.924l12.976,-11.741h5.232z"/><path d="M291.90401,171.5165c0.21667,1.47333 0.49567,2.83766 0.837,4.093l-13.185,10.717c-0.256,-0.94134 -0.46533,-1.96433 -0.628,-3.069z"/><path d="M279.55601,186.3265c0.744,-0.686 1.366,-1.343 1.866,-1.971l13.807,-11.374c-0.66667,0.83733 -1.496,1.71334 -2.488,2.628z"/><path d="M258.99901,166.5635h4.465l-5.866,12.979h-3.349z"/><path d="M263.46401,166.5635l-0.093,6l-5.843,11.479l0.07,-4.5z"/><path d="M263.371,172.5635l8.953,4.767l-8.081,10.287l-6.715,-3.575z"/><path d="M272.32401,177.3305l-1.512,3.721l-7.703,9.356l1.134,-2.79z"/><path d="M263.10901,190.4075l-5.616,-3.209l5.831,-10.426l7.488,4.279z"/><path d="M263.32401,176.7725l-0.139,9.046l-5.796,8.165l0.104,-6.785z"/><path d="M257.38901,193.9835h-3.279l4.703,-8.165h4.372z"/><path d="M254.11001,193.9835l0.139,-14.441l4.75,-12.979l-0.186,19.255z"/><path d="M235.74401,167.9125l13.697,-0.674l-2.36,12.81l-10.273,0.505z"/><path d="M249.44101,167.2385l1.814,2.767l-2.814,12.118l-1.36,-2.075z"/><path d="M248.44101,182.1235c-1.09267,1.616 -2.24934,3.174 -3.47,4.674l1.656,-10.56c1.628,-2 3.17066,-4.07734 4.628,-6.232z"/><path d="M246.62701,176.2375l6.628,4.721l-3.314,9.38l-4.97,-3.541z"/><path d="M249.94101,190.3385l-2.058,2.703l2.628,-8.479l2.744,-3.604z"/><path d="M247.88301,193.0415l-4.779,-4.151l1.035,-9.862l6.372,5.534z"/><path d="M243.10401,188.8905c-0.08133,0.08133 -0.15667,0.157 -0.226,0.227l0.959,-9.787c0.09267,-0.09333 0.19334,-0.194 0.302,-0.302z"/><path d="M242.87801,189.1175c-1.72134,1.72066 -3.45966,3.41233 -5.215,5.075l-0.779,-8.095c2.34067,-2.21667 4.65833,-4.47233 6.953,-6.767z"/><path d="M237.66301,194.1925l-2.076,-2.581l-1.4704,-8.956l2.7674,3.442z"/><path d="M234.11661,182.6555c2.27893,-1.78267 4.47274,-3.68167 6.5814,-5.697l-0.175,10.38c-1.58133,1.51134 -3.22666,2.93567 -4.936,4.273z"/><path d="M240.69801,176.9585c1.82933,-1.752 3.54233,-3.628 5.139,-5.628l-1.459,11.787c-1.198,1.5 -2.483,2.907 -3.855,4.221z"/><path d="M244.37801,183.1175l-7.57,0.349l-1.064,-11.671l10.093,-0.465z"/><path d="M235.74401,171.7955v-3.883l1.064,12.641v2.913z"/><path d="M213.11791,169.7965l5.4183,-0.117l5.3659,12.2l-4.0637,0.087z"/><path d="M218.53621,169.6795l-0.5581,-3.79l5.5055,13.147l0.4185,2.843z"/><path d="M217.97811,165.8895l4.3021,-0.465l4.4299,13.263l-3.2265,0.349z"/><path d="M226.71011,178.6875l0.4535,3.122l-4.2788,-12.223l-0.6046,-4.162z"/><path d="M222.88481,169.5865l7.3949,-0.163l2.43,12.264l-5.5461,0.122z"/><path d="M232.70971,181.6875l-0.0697,3.035l-2.4534,-11.252l0.0931,-4.047z"/><path d="M232.64001,184.7225l-5.023,0.069l-4.1276,-11.228l6.6972,-0.093z"/><path d="M227.61701,184.7915l0.3489,2.337l-4.0114,-10.449l-0.4651,-3.116z"/><path d="M223.95451,176.6795l6.2321,-0.116l2.4534,10.478l-4.6741,0.087z"/><path d="M232.64001,187.0415l-0.0872,3.018l-2.4824,-9.473l0.1162,-4.023z"/><path d="M232.55281,190.0595l-4.1335,0.069l-3.8602,-9.449l5.5113,-0.093z"/><path d="M228.41931,190.1285l0.7151,4.692l-3.6219,-7.886l-0.9534,-6.255z"/><path d="M229.13441,194.8205l-3.2963,0.506l-4.7207,-7.718l4.3951,-0.674z"/><path d="M221.11741,187.6085l-0.9999,-6.883l4.9706,9.438l0.75,5.163z"/><path d="M225.08811,190.1635l-5.3892,0.087l-6.767,-9.409l7.1856,-0.116z"/><path d="M212.93191,180.8415l0.093,-3.93l6.7438,10.392l-0.0698,2.947z"/><path d="M213.02491,176.9115l6.5345,-0.139l5.1102,10.426l-4.9009,0.105z"/><path d="M219.55941,176.7725l-0.4651,-3.14l5.2264,11.212l0.3489,2.354z"/><path d="M224.32071,184.8445l-4.552,0.069l-6.7438,-11.188l6.0694,-0.093z"/><path d="M213.02491,173.7255l0.093,-3.929l6.7205,12.17l-0.0697,2.947z"/><path d="M214.55391,179.8565l0.0698,2.93l-8.4588,-11.897l-0.0931,-3.907z"/><path d="M214.62371,182.7865l-9.453,0.331l-11.6097,-11.787l12.6039,-0.441z"/><path d="M193.56101,171.3305l-0.0233,-3.837l11.6156,12.746l0.0174,2.878z"/><path d="M193.53771,167.4935l12.5341,-0.511l8.4821,12.874l-9.4006,0.383z"/><path d="M190.79371,174.2845l18.278,-0.651l7.732,11.211l-13.7084,0.488z"/><path d="M216.80371,184.8445v2.843l-7.732,-10.264v-3.79z"/><path d="M216.80371,187.6875l-5.0403,0.139l-9.4123,-10.217l6.7206,-0.186z"/><path d="M211.76341,187.8265c-0.11633,0.884 -0.29076,1.762 -0.5233,2.634l-9.5866,-9.34c0.31007,-1.16267 0.5426,-2.333 0.6976,-3.511z"/><path d="M211.24011,190.4605c-0.22087,0.86 -0.4999,1.703 -0.8371,2.529l-9.8657,-8.497c0.4496,-1.10066 0.82167,-2.22467 1.1162,-3.372z"/><path d="M210.40301,192.9895c-0.3256,0.82533 -0.73836,1.61 -1.2383,2.354l-10.2785,-7.711c0.66666,-0.99266 1.21703,-2.03933 1.6511,-3.14z"/><path d="M209.16471,195.3435l-2.9998,-1.29l-11.2784,-8.142l3.9997,1.721z"/><path d="M194.88651,185.9115c0.83713,-1.20934 1.50376,-2.51166 1.9999,-3.907l10.7784,9.118c-0.37206,1.04666 -0.87204,2.02366 -1.4999,2.931z"/><path d="M196.88641,182.0045c0.51154,-1.39533 0.9146,-2.82167 1.2092,-4.279l10.4761,10.188c-0.22093,1.09333 -0.52323,2.163 -0.9069,3.209z"/><path d="M208.57171,187.9135l-5.4067,0.14l-12.2783,-10.142l7.2089,-0.186z"/><path d="M190.88671,177.9115l-0.093,-3.627l12.3016,11.048l0.0697,2.721z"/><path d="M174.02731,184.9575v-17.719l16.4932,12.81v13.289z"/><path d="M174.02731,167.2385h5.0927l15.22,12.81h-3.8195z"/><path d="M179.12001,167.2385c2.82154,0 5.02293,0.72066 6.6042,2.162l13.569,12.27c-1.186,-1.08133 -2.83706,-1.622 -4.9532,-1.622z"/><path d="M199.29321,181.6705c1.18594,1.06933 1.7789,2.72034 1.7789,4.953l-12.9759,-10.619c0,-2.976 -0.79067,-5.17733 -2.372,-6.604z"/><path d="M201.07211,186.6235c0,2.232 -0.58716,3.912 -1.7615,5.04l-13.5631,-8.938c1.5658,-1.504 2.3487,-3.74433 2.3487,-6.721z"/><path d="M199.31061,191.6635c-1.17434,1.116 -2.77307,1.674 -4.7962,1.674l-15.1619,-8.38c2.69753,0 4.8292,-0.744 6.395,-2.232z"/><path d="M194.51441,193.3375h-3.9939l-16.4932,-8.38h5.3252z"/><path d="M178.28281,181.5395h0.5814l15.2839,9.235h-0.436z"/><path d="M178.86421,181.5395c1.55026,0 2.75173,-0.42633 3.6044,-1.279l14.3829,9.554c-0.63953,0.64 -1.54066,0.96 -2.7034,0.96z"/><path d="M182.46861,180.2605c0.85267,-0.85267 1.279,-2.27133 1.279,-4.256l14.0631,10.619c0,1.488 -0.31974,2.55166 -0.9592,3.191z"/><path d="M183.74761,176.0045c0,-1.984 -0.42633,-3.37134 -1.279,-4.162l14.3829,11.659c0.63947,0.59267 0.9592,1.63334 0.9592,3.122z"/><path d="M196.85151,183.5015c-0.62787,-0.60467 -1.529,-0.907 -2.7034,-0.907l-15.2839,-11.961c1.5658,0 2.76727,0.403 3.6044,1.209z"/><path d="M194.14811,182.5945h-0.436l-15.4293,-11.961h0.5814z"/><path d="M193.71211,182.5945v8.18l-15.4293,-9.235v-10.906z"/><path d="M183.10811,193.5825c-1.9882,0 -3.50554,-0.61633 -4.552,-1.849l-20.4813,-8.915c1.39526,1.64334 3.4184,2.465 6.0694,2.465z"/><path d="M158.07481,182.8185l1.9533,-2.674l19.993,9.583l-1.465,2.006z"/><path d="M160.02811,180.1445c1.19374,1.14733 2.41847,1.721 3.6742,1.721l19.0745,9.153c-0.94187,0 -1.86044,-0.43033 -2.7557,-1.291z"/><path d="M163.70231,181.8655c0.8372,0 1.4961,-0.17067 1.9767,-0.512l18.5802,9.281c-0.3604,0.256 -0.85453,0.384 -1.4824,0.384z"/><path d="M165.67901,181.3535c0.49606,-0.35666 0.7441,-0.86067 0.7441,-1.512l18.3942,9.659c0,0.48866 -0.18604,0.86667 -0.5581,1.134z"/><path d="M166.42311,179.8415c0,-0.83667 -0.3178,-1.449 -0.9534,-1.837l18.6326,10.119c0.47666,0.29066 0.715,0.74966 0.715,1.377z"/><path d="M184.10231,188.1235c-0.47673,-0.30266 -1.37204,-0.454 -2.6859,-0.454l-19.5279,-10.269c1.7518,0 2.94554,0.20134 3.5812,0.604z"/><path d="M161.88851,177.4005v-2.977l19.5279,11.014v2.232z"/><path d="M161.88851,174.4235c1.44173,0 2.46493,-0.20133 3.0696,-0.604l18.7605,11.164c-0.45346,0.30266 -1.22087,0.454 -2.3022,0.454z"/><path d="M164.95811,173.8195c0.6046,-0.40333 0.9069,-0.977 0.9069,-1.721l18.5337,11.595c0,0.558 -0.2267,0.988 -0.6801,1.29z"/><path d="M165.86501,172.0985c0,-0.60467 -0.1783,-1.07 -0.5349,-1.396l18.6675,11.944c0.2674,0.24466 0.4011,0.59366 0.4011,1.047z"/><path d="M183.99761,182.6465c-0.2558,-0.244 -0.62786,-0.366 -1.1162,-0.366l-19.0395,-12.066c0.65106,0 1.14713,0.16267 1.4882,0.488z"/><path d="M182.88141,182.2805c-0.72087,0 -1.51154,0.372 -2.372,1.116l-19.8301,-11.694c1.1472,-0.992 2.2014,-1.488 3.1626,-1.488z"/><path d="M160.67931,171.7025l-2.1394,-2.604l20.365,12.345l1.6045,1.953z"/><path d="M158.53991,169.0985c1.7518,-1.45734 3.58886,-2.186 5.5112,-2.186l18.9873,12.891c-1.4418,0 -2.81964,0.54667 -4.1335,1.64z"/><path d="M164.05111,166.9125c1.87587,0 3.3564,0.42633 4.4416,1.279l17.8769,12.572c-0.81393,-0.64 -1.92433,-0.96 -3.3312,-0.96z"/><path d="M186.36961,180.7635c0.81386,0.63933 1.2208,1.54033 1.2208,2.703l-17.4699,-11.671c0,-1.55 -0.5426,-2.75134 -1.6278,-3.604z"/><path d="M187.59041,183.4665c0,1.372 -0.71506,2.34867 -2.1452,2.93l-18.1849,-10.694c1.9068,-0.77534 2.8602,-2.07766 2.8602,-3.907z"/><path d="M185.44521,186.3965v0.087l-18.1849,-10.665v-0.116z"/><path d="M185.44521,186.4835c0.779,0.244 1.40106,0.63934 1.8662,1.186l-17.5629,-10.269c-0.62014,-0.72867 -1.44953,-1.256 -2.4882,-1.582z"/><path d="M187.31141,187.6695c0.46507,0.53466 0.6976,1.215 0.6976,2.041l-17.3303,-9.589c0,-1.10134 -0.31006,-2.00834 -0.9302,-2.721z"/><path d="M188.00901,189.7105c0,1.19734 -0.4709,2.145 -1.4127,2.843l-17.8013,-8.642c1.2558,-0.93 1.8837,-2.19333 1.8837,-3.79z"/><path d="M186.59631,192.5535c-0.9418,0.686 -2.10453,1.029 -3.4882,1.029l-18.9639,-8.299c1.8448,0 3.39506,-0.45734 4.6508,-1.372z"/></g><path d="M301.99626,173.67957v1.65106h1.0697v-1.65106zM306.74015,175.33063v-1.65106h-1.11621v1.65106zM309.55393,180.65589l-1.97662,2.651c-0.37207,-0.71314 -0.93793,-1.58906 -1.69757,-2.62775v6.51123h-3.04633v-5.53455c-0.96118,1.62781 -1.90685,2.86805 -2.83703,3.72071c-0.18604,-0.69763 -0.66663,-1.75959 -1.44177,-3.18585c1.25573,-1.0697 2.4107,-2.49597 3.4649,-4.27881h-2.51147v-6.79029h3.32537v-1.16272h-3.65094v-3.02307h3.65094v-2.27893h3.04633v2.27893h3.48816v3.02307h-3.48816v1.16272h3.48816v6.79029h-2.48822c1.19372,1.16272 2.08515,2.07739 2.67425,2.74402zM317.39067,173.21448v-0.99994h-3.86023v0.99994zM317.39067,176.56311v-0.99994h-3.86023v0.99994zM317.39067,179.91174v-0.99993h-3.86023v0.99993zM320.66953,182.42322h-2.51147c1.76734,1.28674 3.02307,2.32544 3.76721,3.11609l-2.69751,1.72082c-0.72863,-0.85266 -1.93786,-1.95336 -3.62768,-3.30212l2.48822,-1.53479h-5.34851l2.30218,1.53479c-0.65112,0.62012 -1.47277,1.24023 -2.46496,1.86035c-0.99219,0.62012 -1.93787,1.10847 -2.83704,1.46503c-0.71313,-0.80615 -1.46502,-1.52704 -2.25568,-2.16266c1.70533,-0.63562 3.22462,-1.53479 4.55786,-2.69751h-1.60455v-12.72015h2.95331c0.07752,-0.43409 0.13953,-0.88368 0.18603,-1.34876h-3.92999v-2.93005h11.69696v2.93005h-4.13928c-0.10852,0.29456 -0.26355,0.74414 -0.46509,1.34876h3.92999zM281.04405,170.26117v6.16242c2.30993,-1.28674 4.17029,-2.9223 5.58105,-4.90668h-4.95318v-2.46497c-0.07752,0.12402 -0.18605,0.32556 -0.32557,0.60462c-0.13953,0.27905 -0.2403,0.48059 -0.3023,0.60461zM295.22923,172.98194l2.58123,2.44171c-2.34094,1.84484 -3.67419,2.88355 -3.99975,3.11609c1.10071,2.51147 2.55023,4.34082 4.34857,5.48803c-0.93017,0.77515 -1.75182,1.76733 -2.46496,2.97657c-1.78284,-1.31776 -3.18585,-3.05408 -4.20905,-5.20899c-1.02319,-2.15491 -1.8216,-4.7904 -2.3952,-7.90649c-0.5426,0.69762 -1.10071,1.34875 -1.67432,1.95337v6.72052c0.40308,-0.07752 1.05419,-0.20929 1.95337,-0.39533c0.89917,-0.18604 1.5813,-0.32556 2.04639,-0.41858l0.32556,3.09284c-2.03089,0.48058 -5.06171,1.15497 -9.09247,2.02313l-0.95343,-3.27887c0.23255,-0.031 1.04645,-0.17828 2.44171,-0.44183v-4.41834c-0.77515,0.5426 -1.30224,0.89142 -1.5813,1.04645c-0.35656,-0.60461 -0.86041,-1.31 -1.51153,-2.11615v9.48779h-3.30213v-11.88299c-0.46509,0.5891 -0.92243,1.10845 -1.37201,1.55804c-0.17053,-0.44959 -0.44183,-1.06195 -0.8139,-1.8371c-0.37207,-0.79065 -0.69763,-1.39526 -0.97669,-1.81384c1.0697,-1.02319 2.08515,-2.29443 3.04633,-3.81372c0.96118,-1.51928 1.73633,-3.08509 2.32544,-4.69739l3.23236,1.04645c-0.24804,0.66663 -0.62787,1.53479 -1.13946,2.60449h5.65081v-3.37189h3.51142v3.37189h5.92987v3.20911h-5.23224c0.21704,1.47278 0.49609,2.83704 0.83716,4.09277c0.99219,-0.91467 1.8216,-1.79059 2.48822,-2.62774zM258.99888,166.56372h4.46484l-0.093,5.99964l8.95294,4.76715l-1.51154,3.7207l-7.48791,-4.27881l-0.13953,9.04596h-4.37182zM235.74449,167.91248l13.69683,-0.67438l1.81385,2.76727c-1.45728,2.15491 -2.99982,4.2323 -4.62763,6.23218l6.62751,4.72064l-2.74402,3.60443l-6.37171,-5.53454c-0.10852,0.10852 -0.20928,0.20928 -0.3023,0.3023c-2.29444,2.29444 -4.61213,4.55012 -6.95307,6.76703l-2.76727,-3.44165c2.27892,-1.78284 4.47259,-3.68194 6.58099,-5.69732c1.82934,-1.75183 3.54242,-3.62769 5.13922,-5.62757l-10.0924,0.46509zM213.11796,169.79608l5.41827,-0.11627l-0.5581,-3.79047l4.30206,-0.46508l0.60462,4.16253l7.39489,-0.16278l-0.093,4.04627l-6.69726,0.093l0.46509,3.11608l6.23217,-0.11627l-0.11627,4.02301l-5.51129,0.093l0.95343,6.25543l-4.39508,0.67438l-0.99994,-6.8833l-7.18561,0.11627l0.093,-3.92999l6.53449,-0.13953l-0.46509,-3.13934l-6.0694,0.093zM206.07188,166.9823l0.093,3.90674l-12.60388,0.44183l-0.0232,-3.83697zM190.79374,174.28418l18.27796,-0.65112v3.79046l-6.72052,0.18604c-0.15503,1.17822 -0.38757,2.34869 -0.69763,3.51141c-0.29456,1.14722 -0.66663,2.27119 -1.11622,3.37189c-0.43408,1.10071 -0.98443,2.14715 -1.65106,3.13934l-3.99975,-1.72082c0.83715,-1.20923 1.50377,-2.51147 1.99987,-3.90674c0.5116,-1.39526 0.91468,-2.82153 1.20923,-4.27881l-7.20886,0.18604zM174.02732,184.95795v-17.71985h5.09272c2.82154,0 5.02294,0.72088 6.60424,2.16266c1.5813,1.42627 2.37195,3.62769 2.37195,6.60425c0,2.97656 -0.78289,5.21674 -2.34869,6.72052c-1.5658,1.48828 -3.69745,2.23242 -6.39496,2.23242zM178.28288,181.53955h0.58136c1.5503,0 2.75177,-0.42633 3.60443,-1.27899c0.85266,-0.85266 1.27899,-2.27117 1.27899,-4.25555c0,-1.98438 -0.42633,-3.37189 -1.27899,-4.16254c-0.83716,-0.80615 -2.03863,-1.20923 -3.60443,-1.20923h-0.58136zM164.14421,185.28351c-2.651,0 -4.67414,-0.82166 -6.0694,-2.46497l1.95337,-2.67425c1.19373,1.14721 2.41845,1.72082 3.67419,1.72082c0.83716,0 1.49604,-0.17053 1.97663,-0.51159c0.49609,-0.35656 0.74414,-0.86041 0.74414,-1.51154c0,-0.83716 -0.31781,-1.44953 -0.95343,-1.8371c-0.63562,-0.40308 -1.82935,-0.60461 -3.58118,-0.60461v-2.97656c1.44178,0 2.46497,-0.20154 3.06958,-0.60462c0.60461,-0.40308 0.90692,-0.97668 0.90692,-1.72082c0,-0.60461 -0.17829,-1.0697 -0.53485,-1.39527c-0.34106,-0.32556 -0.83716,-0.48834 -1.48828,-0.48834c-0.96118,0 -2.01538,0.49609 -3.1626,1.48828l-2.1394,-2.60449c1.75182,-1.45728 3.58892,-2.18591 5.51129,-2.18591c1.87586,0 3.35638,0.42633 4.44159,1.27899c1.08521,0.85266 1.62781,2.05413 1.62781,3.60443c0,1.82934 -0.95343,3.1316 -2.8603,3.90674v0.11627c1.0387,0.32556 1.8681,0.85266 2.48822,1.5813c0.62012,0.71313 0.93018,1.62005 0.93018,2.72076c0,1.5968 -0.62787,2.8603 -1.88361,3.79047c-1.25573,0.91467 -2.80603,1.37201 -4.65087,1.37201z" fill="#ffffff" stroke="#808080" stroke-width="10"/><path d="M301.99622,173.67954v1.65106h1.0697v-1.65106zM306.74012,175.3306v-1.65106h-1.11621v1.65106zM309.5539,180.65586l-1.97662,2.651c-0.37207,-0.71314 -0.93792,-1.58906 -1.69757,-2.62775v6.51123h-3.04633v-5.53455c-0.96118,1.62781 -1.90686,2.86805 -2.83703,3.72071c-0.18604,-0.69763 -0.66662,-1.75958 -1.44177,-3.18585c1.25574,-1.0697 2.4107,-2.49598 3.4649,-4.27881h-2.51147v-6.79029h3.32537v-1.16272h-3.65094v-3.02307h3.65094v-2.27893h3.04633v2.27893h3.48816v3.02307h-3.48816v1.16272h3.48816v6.79029h-2.48822c1.19372,1.16272 2.08515,2.07739 2.67425,2.74402zM317.39063,173.21445v-0.99994h-3.86023v0.99994zM317.39063,176.56308v-0.99994h-3.86023v0.99994zM317.39063,179.91171v-0.99993h-3.86023v0.99993zM320.6695,182.42319h-2.51147c1.76734,1.28674 3.02307,2.32543 3.76721,3.11609l-2.69751,1.72082c-0.72863,-0.85266 -1.93786,-1.95336 -3.62768,-3.30212l2.48822,-1.53479h-5.34851l2.30218,1.53479c-0.65112,0.62012 -1.47277,1.24024 -2.46496,1.86035c-0.9922,0.62012 -1.93788,1.10846 -2.83704,1.46503c-0.71314,-0.80615 -1.46503,-1.52704 -2.25568,-2.16266c1.70533,-0.63562 3.22462,-1.53479 4.55786,-2.69751h-1.60455v-12.72015h2.95331c0.07751,-0.43409 0.13952,-0.88368 0.18603,-1.34876h-3.92999v-2.93005h11.69696v2.93005h-4.13928c-0.10852,0.29456 -0.26355,0.74414 -0.46509,1.34876h3.92999zM281.04402,170.26114v6.16242c2.30993,-1.28674 4.17028,-2.9223 5.58105,-4.90668h-4.95318v-2.46497c-0.07752,0.12402 -0.18604,0.32557 -0.32557,0.60462c-0.13952,0.27905 -0.24029,0.48059 -0.3023,0.60461zM295.2292,172.98191l2.58123,2.44171c-2.34094,1.84484 -3.67419,2.88354 -3.99975,3.11609c1.1007,2.51147 2.55023,4.34082 4.34857,5.48803c-0.93018,0.77515 -1.75183,1.76734 -2.46496,2.97657c-1.78284,-1.31776 -3.18586,-3.05408 -4.20905,-5.20899c-1.02319,-2.15491 -1.8216,-4.79041 -2.3952,-7.90649c-0.5426,0.69762 -1.10072,1.34875 -1.67432,1.95337v6.72052c0.40308,-0.07752 1.0542,-0.20929 1.95337,-0.39533c0.89916,-0.18604 1.58129,-0.32556 2.04639,-0.41858l0.32556,3.09284c-2.03089,0.48058 -5.06171,1.15497 -9.09247,2.02313l-0.95343,-3.27887c0.23254,-0.031 1.04645,-0.17827 2.44171,-0.44183v-4.41834c-0.77514,0.5426 -1.30224,0.89141 -1.5813,1.04645c-0.35657,-0.60461 -0.86041,-1.31 -1.51153,-2.11615v9.48779h-3.30213v-11.88299c-0.46509,0.5891 -0.92242,1.10845 -1.37201,1.55804c-0.17053,-0.44959 -0.44183,-1.06196 -0.8139,-1.8371c-0.37207,-0.79065 -0.69763,-1.39526 -0.97669,-1.81384c1.0697,-1.02319 2.08515,-2.29443 3.04633,-3.81372c0.96118,-1.51928 1.73632,-3.08509 2.32544,-4.69739l3.23236,1.04645c-0.24804,0.66663 -0.62786,1.53479 -1.13946,2.60449h5.65081v-3.37189h3.51142v3.37189h5.92987v3.20911h-5.23224c0.21704,1.47278 0.49609,2.83704 0.83716,4.09277c0.99218,-0.91467 1.8216,-1.79058 2.48822,-2.62774zM258.99884,166.56369h4.46484l-0.093,5.99964l8.95294,4.76715l-1.51154,3.7207l-7.48791,-4.27881l-0.13953,9.04596h-4.37182zM235.74446,167.91245l13.69683,-0.67438l1.81385,2.76727c-1.45728,2.15491 -2.99983,4.2323 -4.62763,6.23218l6.62751,4.72064l-2.74402,3.60443l-6.37171,-5.53454c-0.10852,0.10852 -0.20928,0.20928 -0.3023,0.3023c-2.29444,2.29444 -4.61213,4.55012 -6.95307,6.76703l-2.76727,-3.44165c2.27892,-1.78284 4.47259,-3.68194 6.58099,-5.69732c1.82934,-1.75183 3.54242,-3.62769 5.13922,-5.62757l-10.0924,0.46509zM213.11793,169.79605l5.41827,-0.11627l-0.5581,-3.79047l4.30206,-0.46508l0.60462,4.16253l7.39489,-0.16278l-0.093,4.04627l-6.69726,0.093l0.46509,3.11608l6.23217,-0.11627l-0.11627,4.02301l-5.51129,0.093l0.95343,6.25543l-4.39508,0.67438l-0.99994,-6.8833l-7.18561,0.11627l0.093,-3.92999l6.53449,-0.13953l-0.46509,-3.13934l-6.0694,0.093zM206.07185,166.98227l0.093,3.90674l-12.60388,0.44183l-0.0232,-3.83697zM190.79371,174.28415l18.27796,-0.65112v3.79046l-6.72052,0.18604c-0.15503,1.17822 -0.38757,2.34869 -0.69763,3.51141c-0.29456,1.14722 -0.66663,2.27119 -1.11622,3.37189c-0.43408,1.10071 -0.98443,2.14715 -1.65106,3.13934l-3.99975,-1.72082c0.83715,-1.20923 1.50377,-2.51148 1.99987,-3.90674c0.5116,-1.39526 0.91468,-2.82153 1.20923,-4.27881l-7.20886,0.18604zM174.02728,184.95792v-17.71985h5.09272c2.82154,0 5.02294,0.72088 6.60424,2.16266c1.5813,1.42627 2.37195,3.62769 2.37195,6.60425c0,2.97656 -0.78289,5.21674 -2.34869,6.72052c-1.5658,1.48828 -3.69745,2.23242 -6.39496,2.23242zM178.28284,181.53952h0.58136c1.5503,0 2.75177,-0.42633 3.60443,-1.27899c0.85266,-0.85266 1.27899,-2.27117 1.27899,-4.25555c0,-1.98438 -0.42633,-3.37189 -1.27899,-4.16254c-0.83716,-0.80615 -2.03863,-1.20923 -3.60443,-1.20923h-0.58136zM164.14417,185.28348c-2.651,0 -4.67414,-0.82165 -6.0694,-2.46497l1.95337,-2.67425c1.19373,1.14721 2.41845,1.72082 3.67419,1.72082c0.83716,0 1.49604,-0.17053 1.97663,-0.51159c0.49609,-0.35656 0.74414,-0.86041 0.74414,-1.51154c0,-0.83716 -0.31781,-1.44952 -0.95343,-1.8371c-0.63562,-0.40308 -1.82935,-0.60461 -3.58118,-0.60461v-2.97656c1.44178,0 2.46497,-0.20154 3.06958,-0.60462c0.60461,-0.40308 0.90692,-0.97668 0.90692,-1.72082c0,-0.60461 -0.17829,-1.0697 -0.53485,-1.39527c-0.34106,-0.32556 -0.83716,-0.48834 -1.48828,-0.48834c-0.96118,0 -2.01538,0.49609 -3.1626,1.48828l-2.1394,-2.60449c1.75182,-1.45728 3.58892,-2.18591 5.51129,-2.18591c1.87586,0 3.35638,0.42633 4.44159,1.27899c1.08521,0.85266 1.62781,2.05414 1.62781,3.60443c0,1.82934 -0.95343,3.13159 -2.8603,3.90674v0.11627c1.0387,0.32556 1.8681,0.85266 2.48822,1.5813c0.62012,0.71313 0.93018,1.62005 0.93018,2.72076c0,1.5968 -0.62787,2.8603 -1.88361,3.79047c-1.25573,0.91467 -2.80603,1.37201 -4.65087,1.37201z" fill="#ffffff" stroke="#ffffff" stroke-width="5"/><path d="M301.99622,173.67954v1.65106h1.0697v-1.65106zM306.74012,175.3306v-1.65106h-1.11621v1.65106zM309.5539,180.65586l-1.97662,2.651c-0.37207,-0.71314 -0.93792,-1.58906 -1.69757,-2.62775v6.51123h-3.04633v-5.53455c-0.96118,1.62781 -1.90686,2.86805 -2.83703,3.72071c-0.18604,-0.69763 -0.66662,-1.75958 -1.44177,-3.18585c1.25574,-1.0697 2.4107,-2.49598 3.4649,-4.27881h-2.51147v-6.79029h3.32537v-1.16272h-3.65094v-3.02307h3.65094v-2.27893h3.04633v2.27893h3.48816v3.02307h-3.48816v1.16272h3.48816v6.79029h-2.48822c1.19372,1.16272 2.08515,2.07739 2.67425,2.74402zM317.39063,173.21445v-0.99994h-3.86023v0.99994zM317.39063,176.56308v-0.99994h-3.86023v0.99994zM317.39063,179.91171v-0.99993h-3.86023v0.99993zM320.6695,182.42319h-2.51147c1.76734,1.28674 3.02307,2.32543 3.76721,3.11609l-2.69751,1.72082c-0.72863,-0.85266 -1.93786,-1.95336 -3.62768,-3.30212l2.48822,-1.53479h-5.34851l2.30218,1.53479c-0.65112,0.62012 -1.47277,1.24024 -2.46496,1.86035c-0.9922,0.62012 -1.93788,1.10846 -2.83704,1.46503c-0.71314,-0.80615 -1.46503,-1.52704 -2.25568,-2.16266c1.70533,-0.63562 3.22462,-1.53479 4.55786,-2.69751h-1.60455v-12.72015h2.95331c0.07751,-0.43409 0.13952,-0.88368 0.18603,-1.34876h-3.92999v-2.93005h11.69696v2.93005h-4.13928c-0.10852,0.29456 -0.26355,0.74414 -0.46509,1.34876h3.92999zM281.04402,170.26114v6.16242c2.30993,-1.28674 4.17028,-2.9223 5.58105,-4.90668h-4.95318v-2.46497c-0.07752,0.12402 -0.18604,0.32557 -0.32557,0.60462c-0.13952,0.27905 -0.24029,0.48059 -0.3023,0.60461zM295.2292,172.98191l2.58123,2.44171c-2.34094,1.84484 -3.67419,2.88354 -3.99975,3.11609c1.1007,2.51147 2.55023,4.34082 4.34857,5.48803c-0.93018,0.77515 -1.75183,1.76734 -2.46496,2.97657c-1.78284,-1.31776 -3.18586,-3.05408 -4.20905,-5.20899c-1.02319,-2.15491 -1.8216,-4.79041 -2.3952,-7.90649c-0.5426,0.69762 -1.10072,1.34875 -1.67432,1.95337v6.72052c0.40308,-0.07752 1.0542,-0.20929 1.95337,-0.39533c0.89916,-0.18604 1.58129,-0.32556 2.04639,-0.41858l0.32556,3.09284c-2.03089,0.48058 -5.06171,1.15497 -9.09247,2.02313l-0.95343,-3.27887c0.23254,-0.031 1.04645,-0.17827 2.44171,-0.44183v-4.41834c-0.77514,0.5426 -1.30224,0.89141 -1.5813,1.04645c-0.35657,-0.60461 -0.86041,-1.31 -1.51153,-2.11615v9.48779h-3.30213v-11.88299c-0.46509,0.5891 -0.92242,1.10845 -1.37201,1.55804c-0.17053,-0.44959 -0.44183,-1.06196 -0.8139,-1.8371c-0.37207,-0.79065 -0.69763,-1.39526 -0.97669,-1.81384c1.0697,-1.02319 2.08515,-2.29443 3.04633,-3.81372c0.96118,-1.51928 1.73632,-3.08509 2.32544,-4.69739l3.23236,1.04645c-0.24804,0.66663 -0.62786,1.53479 -1.13946,2.60449h5.65081v-3.37189h3.51142v3.37189h5.92987v3.20911h-5.23224c0.21704,1.47278 0.49609,2.83704 0.83716,4.09277c0.99218,-0.91467 1.8216,-1.79058 2.48822,-2.62774zM258.99884,166.56369h4.46484l-0.093,5.99964l8.95294,4.76715l-1.51154,3.7207l-7.48791,-4.27881l-0.13953,9.04596h-4.37182zM235.74446,167.91245l13.69683,-0.67438l1.81385,2.76727c-1.45728,2.15491 -2.99983,4.2323 -4.62763,6.23218l6.62751,4.72064l-2.74402,3.60443l-6.37171,-5.53454c-0.10852,0.10852 -0.20928,0.20928 -0.3023,0.3023c-2.29444,2.29444 -4.61213,4.55012 -6.95307,6.76703l-2.76727,-3.44165c2.27892,-1.78284 4.47259,-3.68194 6.58099,-5.69732c1.82934,-1.75183 3.54242,-3.62769 5.13922,-5.62757l-10.0924,0.46509zM213.11793,169.79605l5.41827,-0.11627l-0.5581,-3.79047l4.30206,-0.46508l0.60461,4.16253l7.3949,-0.16278l-0.09302,4.04627l-6.69726,0.093l0.46508,3.11608l6.23218,-0.11627l-0.11628,4.02301l-5.51129,0.093l0.95343,6.25543l-4.39508,0.67438l-0.99994,-6.8833l-7.18561,0.11627l0.09302,-3.92999l6.53449,-0.13953l-0.46509,-3.13934l-6.0694,0.093zM206.07185,166.98227l0.09302,3.90674l-12.60388,0.44183l-0.02325,-3.83697zM190.79371,174.28415l18.27795,-0.65112v3.79046l-6.72052,0.18604c-0.15503,1.17822 -0.38757,2.34869 -0.69763,3.51141c-0.29456,1.14722 -0.66662,2.27119 -1.11621,3.37189c-0.43408,1.10071 -0.98444,2.14715 -1.65106,3.13934l-3.99976,-1.72082c0.83716,-1.20923 1.50379,-2.51148 1.99988,-3.90674c0.51159,-1.39526 0.91467,-2.82153 1.20923,-4.27881l-7.20886,0.18604zM174.02729,184.95792v-17.71985h5.09271c2.82154,0 5.02295,0.72088 6.60425,2.16266c1.5813,1.42627 2.37195,3.62769 2.37195,6.60425c0,2.97656 -0.7829,5.21674 -2.34869,6.72052c-1.5658,1.48828 -3.69745,2.23242 -6.39496,2.23242zM178.28284,181.53952h0.58136c1.5503,0 2.75177,-0.42633 3.60443,-1.27899c0.85266,-0.85266 1.27899,-2.27117 1.27899,-4.25555c0,-1.98438 -0.42633,-3.37189 -1.27899,-4.16254c-0.83716,-0.80615 -2.03863,-1.20923 -3.60443,-1.20923h-0.58136zM164.14417,185.28348c-2.651,0 -4.67413,-0.82165 -6.06939,-2.46497l1.95337,-2.67425c1.19373,1.14721 2.41846,1.72082 3.67419,1.72082c0.83716,0 1.49603,-0.17053 1.97662,-0.51159c0.49609,-0.35656 0.74414,-0.86041 0.74414,-1.51154c0,-0.83716 -0.31781,-1.44952 -0.95343,-1.8371c-0.63562,-0.40308 -1.82934,-0.60461 -3.58118,-0.60461v-2.97656c1.44178,0 2.46497,-0.20154 3.06958,-0.60462c0.60461,-0.40308 0.90692,-0.97668 0.90692,-1.72082c0,-0.60461 -0.17829,-1.0697 -0.53485,-1.39527c-0.34106,-0.32556 -0.83715,-0.48834 -1.48828,-0.48834c-0.96118,0 -2.01539,0.49609 -3.1626,1.48828l-2.13941,-2.60449c1.75183,-1.45728 3.58893,-2.18591 5.5113,-2.18591c1.87586,0 3.35638,0.42633 4.44159,1.27899c1.08521,0.85266 1.6278,2.05414 1.6278,3.60443c0,1.82934 -0.95343,3.13159 -2.86029,3.90674v0.11627c1.03869,0.32556 1.86811,0.85266 2.48822,1.5813c0.62011,0.71313 0.93017,1.62005 0.93017,2.72076c0,1.5968 -0.62787,2.8603 -1.88361,3.79047c-1.25573,0.91467 -2.80603,1.37201 -4.65088,1.37201z" fill="#ff9600" stroke="none" stroke-width="37.5"/></g></g></svg>