<svg version="1.1" xmlns="http://www.w3.org/2000/svg" xmlns:xlink="http://www.w3.org/1999/xlink" width="268.2753" height="68.5305" viewBox="0,0,268.2753,68.5305"><g transform="translate(-105.86221,-151.17783)"><g data-paper-data="{&quot;isPaintingLayer&quot;:true}" fill-rule="nonzero" stroke-linecap="butt" stroke-linejoin="round" stroke-miterlimit="10" stroke-dasharray="" stroke-dashoffset="0" style="mix-blend-mode: normal"><g fill="#ffffff" stroke="#ffffff" stroke-width="22.5"><path d="M332.99401,175.96233v2.4765l-23.2485,16.1805v-1.857z"/><path d="M332.99401,178.43883h1.605l-23.6505,16.1805h-1.203z"/><path d="M310.94851,194.61933v-1.857l23.6505,-16.8v2.4765z"/><path d="M310.94851,192.76233h-1.203l23.2485,-16.8h1.605z"/><path d="M315.08251,194.61933v-1.857l25.0275,-16.8v2.4765z"/><path d="M315.08251,192.76233h-1.2555l24.609,-16.8h1.674z"/><path d="M338.43601,175.96233v2.4765l-24.609,16.1805v-1.857z"/><path d="M338.43601,178.43883h1.674l-25.0275,16.1805h-1.2555z"/><path d="M344.33101,186.42633l-2.9655,3.9765l-25.341,13.1895l2.223,-2.982z"/><path d="M316.02451,203.59233c-0.419,-0.802 -1.0555,-1.7875 -1.9095,-2.9565l24.705,-14.1735c1.139,1.558 1.9875,2.8715 2.5455,3.9405z"/><path d="M338.82001,186.46233v9.7665l-24.705,11.733v-7.326z"/><path d="M314.11501,207.96183h-3.4275l23.562,-11.733h4.5705z"/><path d="M310.68751,207.96183v-6.2265l23.562,-13.809v8.3025z"/><path d="M334.24951,187.92633c-1.441,2.442 -2.8595,4.3025 -4.2555,5.5815l-22.4985,12.4125c1.047,-0.959 2.111,-2.354 3.192,-4.185z"/><path d="M307.49551,205.92033c-0.209,-0.784 -0.7495,-1.9785 -1.6215,-3.5835l21.9585,-13.608c1.162,2.14 1.8825,3.733 2.1615,4.779z"/><path d="M305.87401,202.33683c1.413,-1.203 2.7125,-2.8075 3.8985,-4.8135l23.256,-15.213c-1.581,2.675 -3.313,4.8145 -5.196,6.4185z"/><path d="M309.77251,197.52333h-2.826l22.3155,-15.213h3.7665z"/><path d="M306.94651,197.52333v-7.6395l22.3155,-17.7585v10.185z"/><path d="M329.26201,172.12533h4.9875l-23.562,17.7585h-3.741z"/><path d="M310.68751,189.88383v-1.308l23.562,-18.195v1.7445z"/><path d="M310.68751,188.57583h-4.107l22.1925,-18.195h5.4765z"/><path d="M306.58051,188.57583v-3.4005l22.1925,-19.329v4.5345z"/><path d="M328.77301,165.84633h5.4765l-23.562,19.329h-4.107z"/><path d="M310.68751,185.17533v-2.5635l23.562,-20.184v3.4185z"/><path d="M334.24951,162.42783h4.5705l-24.705,20.184h-3.4275z"/><path d="M338.82001,162.42783v3.4185l-24.705,19.329v-2.5635z"/><path d="M338.82001,165.84633h5.232l-26.013,19.329h-3.924z"/><path d="M344.05201,165.84633v4.5345l-26.013,18.195v-3.4005z"/><path d="M318.03901,188.57583h-3.924l24.705,-18.195h5.232z"/><path d="M338.82001,170.38083v1.7445l-24.705,17.7585v-1.308z"/><path d="M338.82001,172.12533h5.232l-26.013,17.7585h-3.924z"/><path d="M344.05201,172.12533v10.185l-26.013,15.213v-7.6395z"/><path d="M318.03901,197.52333h-2.799l25.08,-15.213h3.732z"/><path d="M340.32001,182.31033c1.79,1.744 3.127,3.116 4.011,4.116l-26.0835,14.184c-0.662,-0.75 -1.6645,-1.779 -3.0075,-3.087z"/><path d="M327.06451,192.23883v-1.125l29.022,-17.349v1.5z"/><path d="M327.06451,191.11383h-4.3425l27.573,-17.349h5.7915z"/><path d="M350.29501,173.76483v1.5l-27.573,16.974v-1.125z"/><path d="M350.29501,175.26483h5.7915l-29.022,16.974h-4.3425z"/><path d="M327.06451,196.00533v-1.125l29.022,-16.092v1.5z"/><path d="M327.06451,194.88033h-4.3425l27.573,-16.092h5.7915z"/><path d="M350.29501,178.78833v1.5l-27.573,15.717v-1.125z"/><path d="M350.29501,180.28833h5.7915l-29.022,15.717h-4.3425z"/><path d="M327.06451,199.77333v-1.125l29.022,-14.838v1.5z"/><path d="M327.06451,198.64833h-4.3425l27.573,-14.838h5.7915z"/><path d="M350.29501,183.81033v1.5l-27.573,14.463v-1.125z"/><path d="M350.29501,185.31033h5.7915l-29.022,14.463h-4.3425z"/><path d="M330.75301,202.59783h-2.8245l29.3085,-13.5195h3.7665z"/><path d="M357.23701,189.07833c2.651,1.93 4.5345,3.488 5.6505,4.674l-30.7215,12.351c-0.837,-0.889 -2.2495,-2.0575 -4.2375,-3.5055z"/><path d="M362.88751,193.75233l-4.0455,2.5815l-29.7105,11.706l3.0345,-1.9365z"/><path d="M329.13151,208.03983c-0.82,-0.959 -2.1805,-2.197 -4.0815,-3.714l28.35,-12.9465c2.535,2.024 4.349,3.6755 5.442,4.9545z"/><path d="M325.05001,204.32583l2.799,-1.728l29.283,-13.5195l-3.732,2.301z"/><path d="M327.84901,202.59783h-6.0165l27.2775,-13.5195h8.022z"/><path d="M349.11001,189.07833l3.453,2.301l-28.1415,12.9465l-2.589,-1.728z"/><path d="M352.56301,191.37933c-0.977,0.931 -2.2095,1.8615 -3.6975,2.7915l-27.216,12.2475c1.116,-0.698 2.04,-1.3955 2.772,-2.0925z"/><path d="M348.86551,194.17083c-1.488,0.93 -2.9065,1.6625 -4.2555,2.1975l-26.1525,11.6985c1.012,-0.402 2.076,-0.9515 3.192,-1.6485z"/><path d="M318.45751,208.06683c-0.802,-0.907 -1.648,-1.718 -2.538,-2.433l25.3065,-12.51c1.186,0.954 2.314,2.0355 3.384,3.2445z"/><path d="M315.91951,205.63383c1.919,-0.716 3.6285,-1.728 5.1285,-3.036l27.015,-13.5195c-2,1.744 -4.279,3.0925 -6.837,4.0455z"/><path d="M321.04801,202.59783h-1.806l26.415,-13.5195h2.406z"/><path d="M319.24201,202.59783v-14.31l26.415,-18.2895v19.08z"/><path d="M345.65701,169.99833h4.4295l-27.522,18.2895h-3.3225z"/><path d="M322.56451,188.28783c0.087,-0.488 0.157,-0.9935 0.21,-1.5165l27.591,-18.7965c-0.07,0.697 -0.163,1.3715 -0.279,2.0235z"/><path d="M322.77451,186.77133h-4.422l26.118,-18.7965h5.895z"/><path d="M318.35251,186.77133v-3.297l26.118,-19.8945v4.395z"/><path d="M344.47051,163.57983h17.5455l-30.504,19.8945h-13.1595z"/><path d="M362.01601,163.57983v4.395l-30.504,18.7965v-3.297z"/><path d="M331.51201,186.77133h-4.6575l28.953,-18.7965h6.2085z"/><path d="M355.80751,167.97483c-0.163,0.442 -0.396,1.1165 -0.699,2.0235l-28.776,18.2895c0.226,-0.68 0.4,-1.1855 0.522,-1.5165z"/><path d="M355.10851,169.99833h5.895l-30.2505,18.2895h-4.4205z"/><path d="M361.00351,169.99833v19.08l-30.2505,13.5195v-14.31z"/><path d="M301.56601,170.83533v9.243l-15.3915,15.771v-6.933z"/><path d="M301.56601,180.07833c3.465,-1.93 6.2555,-4.3835 8.3715,-7.3605l-17.484,17.6115c-1.587,2.232 -3.68,4.072 -6.279,5.52z"/><path d="M292.45351,190.32933h-5.5725l15.627,-17.6115h7.4295z"/><path d="M286.88101,190.32933v-2.7735l15.627,-18.5355v3.6975z"/><path d="M302.50801,169.02033c-0.116,0.186 -0.279,0.4885 -0.489,0.9075l-15.504,18.3075c0.157,-0.314 0.279,-0.5405 0.366,-0.6795z"/><path d="M302.01901,169.92783c-0.209,0.419 -0.36,0.7215 -0.453,0.9075l-15.3915,18.081c0.07,-0.14 0.1835,-0.367 0.3405,-0.681z"/><path d="M322.84351,174.91533l3.8715,3.663l-21.678,16.146l-2.904,-2.748z"/><path d="M326.71501,178.57833c-3.511,2.767 -5.5105,4.325 -5.9985,4.674l-20.1795,14.9775c0.366,-0.262 1.866,-1.4305 4.5,-3.5055z"/><path d="M320.71651,183.25233c1.651,3.767 3.825,6.511 6.522,8.232l-21.81,12.9195c-2.023,-1.291 -3.6535,-3.349 -4.8915,-6.174z"/><path d="M327.23851,191.48433c-1.395,1.163 -2.6275,2.6515 -3.6975,4.4655l-20.8845,11.802c0.802,-1.36 1.726,-2.476 2.772,-3.348z"/><path d="M302.65651,207.75183c-2.006,-1.482 -3.5845,-3.435 -4.7355,-5.859l19.3065,-13.7565c1.535,3.232 3.6395,5.8365 6.3135,7.8135z"/><path d="M297.92101,201.89283c-1.151,-2.425 -2.049,-5.39 -2.694,-8.895l18.408,-16.722c0.86,4.674 2.0575,8.6275 3.5925,11.8605z"/><path d="M313.63501,176.27583c-0.814,1.047 -1.651,2.024 -2.511,2.931l-17.781,15.9885c0.645,-0.681 1.273,-1.4135 1.884,-2.1975z"/><path d="M311.12401,179.20683v10.08l-17.781,13.4685v-7.56z"/><path d="M311.12401,189.28683c0.604,-0.116 1.5805,-0.3135 2.9295,-0.5925l-18.513,13.617c-1.012,0.209 -1.7445,0.357 -2.1975,0.444z"/><path d="M314.05351,188.69433c1.349,-0.279 2.372,-0.4885 3.069,-0.6285l-19.2795,13.7745c-0.524,0.104 -1.2915,0.261 -2.3025,0.471z"/><path d="M317.12251,188.06583l0.489,4.6395l-19.4025,12.6135l-0.366,-3.4785z"/><path d="M298.20901,205.31883c-2.285,0.541 -5.695,1.3 -10.23,2.277l15.9945,-11.856c6.046,-1.302 10.592,-2.3135 13.638,-3.0345z"/><path d="M287.97901,207.59583l-1.0725,-3.69l15.636,-13.0845l1.431,4.9185z"/><path d="M302.54251,190.82133c0.349,-0.046 1.57,-0.2665 3.663,-0.6615l-16.551,13.2495c-1.57,0.297 -2.486,0.4625 -2.748,0.4965z"/><path d="M289.65451,203.40933v-4.971l16.551,-14.907v6.6285z"/><path d="M289.65451,198.43833c-0.872,0.611 -1.465,1.0035 -1.779,1.1775l15.9585,-14.514c0.418,-0.233 1.2085,-0.7565 2.3715,-1.5705z"/><path d="M287.87551,199.61583c-0.401,-0.68 -0.968,-1.4735 -1.701,-2.3805l15.3915,-15.3075c0.977,1.209 1.733,2.267 2.268,3.174z"/><path d="M301.56601,181.92783v14.2305l-15.3915,11.751v-10.674z"/><path d="M286.17451,207.90933h-3.7155l14.154,-11.751h4.953z"/><path d="M282.45901,207.90933v-13.368l14.154,-16.2075v17.8245z"/><path d="M282.45901,194.54133c-0.523,0.662 -1.0375,1.246 -1.5435,1.752l13.6395,-15.6225c0.674,-0.674 1.36,-1.453 2.058,-2.337z"/><path d="M280.91551,196.29333c-0.191,-0.506 -0.496,-1.195 -0.915,-2.067l13.3335,-16.311c0.558,1.163 0.965,2.0815 1.221,2.7555z"/><path d="M280.00051,194.22633c-0.419,-0.889 -0.7855,-1.569 -1.0995,-2.04l12.9675,-16.992c0.419,0.628 0.9075,1.535 1.4655,2.721z"/><path d="M291.86851,175.19433c1.605,-1.534 3.1285,-3.4405 4.5705,-5.7195l-14.1105,18.4215c-1.081,1.709 -2.2235,3.139 -3.4275,4.29z"/><path d="M282.32851,187.89633c1.082,-1.71 1.954,-3.4715 2.616,-5.2845l14.982,-20.184c-0.884,2.419 -2.0465,4.768 -3.4875,7.047z"/><path d="M299.92651,162.42783l4.848,1.5705l-16.1925,19.7895l-3.6375,-1.176z"/><path d="M304.77451,163.99833c-0.372,1 -0.9415,2.302 -1.7085,3.906l-15.7665,18.8145c0.576,-1.204 1.0035,-2.181 1.2825,-2.931z"/><path d="M303.06601,167.90433h8.4765l-17.886,18.8145h-6.357z"/><path d="M293.65651,186.71883v-3.7935l17.886,-20.079v5.058z"/><path d="M311.54251,162.84633h5.2665l-19.2015,20.079h-3.951z"/><path d="M316.80901,162.84633v5.058l-19.2015,18.8145v-3.7935z"/><path d="M316.80901,167.90433h8.895l-21.426,18.8145h-6.6705z"/><path d="M325.70401,167.90433v4.8135l-21.426,17.6115v-3.6105z"/><path d="M304.27801,190.32933h-5.886l19.464,-17.6115h7.848z"/><path d="M317.85601,172.71783c0.325,2.21 0.7435,4.2565 1.2555,6.1395l-19.7775,16.0755c-0.384,-1.412 -0.698,-2.9465 -0.942,-4.6035z"/><path d="M299.33401,194.93283c1.116,-1.029 2.049,-2.0145 2.799,-2.9565l20.7105,-17.061c-1,1.256 -2.244,2.57 -3.732,3.942z"/><path d="M268.49851,165.28833h6.6975l-8.799,19.4685h-5.0235z"/><path d="M275.19601,165.28833l-0.1395,9l-8.7645,17.2185l0.105,-6.75z"/><path d="M275.05651,174.28833l13.4295,7.1505l-12.1215,15.4305l-10.0725,-5.3625z"/><path d="M288.48601,181.43883l-2.268,5.5815l-11.5545,14.034l1.701,-4.185z"/><path d="M274.66351,201.05433l-8.424,-4.8135l8.7465,-15.639l11.232,6.4185z"/><path d="M274.98601,180.60183l-0.2085,13.569l-8.694,12.2475l0.156,-10.1775z"/><path d="M266.08351,206.41833h-4.9185l7.0545,-12.2475h6.558z"/><path d="M261.16501,206.41833l0.2085,-21.6615l7.125,-19.4685l-0.279,28.8825z"/><path d="M233.61601,167.31183l20.5455,-1.011l-3.54,19.215l-15.4095,0.7575z"/><path d="M254.16151,166.30083l2.721,4.1505l-4.221,18.177l-2.04,-3.1125z"/><path d="M252.66151,188.62833c-1.639,2.424 -3.374,4.761 -5.205,7.011l2.484,-15.84c2.442,-3 4.756,-6.116 6.942,-9.348z"/><path d="M249.94051,179.79933l9.942,7.0815l-4.971,14.07l-7.455,-5.3115z"/><path d="M254.91151,200.95083l-3.087,4.0545l3.942,-12.7185l4.116,-5.406z"/><path d="M251.82451,205.00533l-7.1685,-6.2265l1.5525,-14.793l9.558,8.301z"/><path d="M244.65601,198.77883c-0.122,0.122 -0.235,0.2355 -0.339,0.3405l1.4385,-14.6805c0.139,-0.14 0.29,-0.291 0.453,-0.453z"/><path d="M244.31701,199.11933c-2.582,2.581 -5.1895,5.1185 -7.8225,7.6125l-1.1685,-12.1425c3.511,-3.325 6.9875,-6.7085 10.4295,-10.1505z"/><path d="M236.49451,206.73183l-3.114,-3.8715l-2.2056,-13.434l4.1511,5.163z"/><path d="M231.17491,189.42633c3.4184,-2.674 6.7091,-5.5225 9.8721,-8.5455l-0.2625,15.57c-2.372,2.267 -4.84,4.4035 -7.404,6.4095z"/><path d="M241.04701,180.88083c2.744,-2.628 5.3135,-5.442 7.7085,-8.442l-2.1885,17.6805c-1.797,2.25 -3.7245,4.3605 -5.7825,6.3315z"/><path d="M246.56701,190.11933l-11.355,0.5235l-1.596,-17.5065l15.1395,-0.6975z"/><path d="M233.61601,173.13633v-5.8245l1.596,18.9615v4.3695z"/><path d="M199.67686,170.13783l8.12745,-0.1755l8.04885,18.3l-6.09555,0.1305z"/><path d="M207.80431,169.96233l-0.83715,-5.685l8.25825,19.7205l0.62775,4.2645z"/><path d="M206.96716,164.27733l6.45315,-0.6975l6.64485,19.8945l-4.83975,0.5235z"/><path d="M220.06516,183.47433l0.68025,4.683l-6.4182,-18.3345l-0.9069,-6.243z"/><path d="M214.32721,169.82283l11.09235,-0.2445l3.645,18.396l-8.31915,0.183z"/><path d="M229.06456,187.97433l-0.10455,4.5525l-3.6801,-16.878l0.13965,-6.0705z"/><path d="M228.96001,192.52683l-7.5345,0.1035l-6.1914,-16.842l10.0458,-0.1395z"/><path d="M221.42551,192.63033l0.52335,3.5055l-6.0171,-15.6735l-0.69765,-4.674z"/><path d="M215.93176,180.46233l9.34815,-0.174l3.6801,15.717l-7.01115,0.1305z"/><path d="M228.96001,196.00533l-0.1308,4.527l-3.7236,-14.2095l0.1743,-6.0345z"/><path d="M228.82921,200.53233l-6.20025,0.1035l-5.7903,-14.1735l8.26695,-0.1395z"/><path d="M222.62896,200.63583l1.07265,7.038l-5.43285,-11.829l-1.4301,-9.3825z"/><path d="M223.70161,207.67383l-4.94445,0.759l-7.08105,-11.577l6.59265,-1.011z"/><path d="M211.67611,196.85583l-1.49985,-10.3245l7.4559,14.157l1.125,7.7445z"/><path d="M217.63216,200.68833l-8.0838,0.1305l-10.1505,-14.1135l10.7784,-0.174z"/><path d="M199.39786,186.70533l0.1395,-5.895l10.1157,15.588l-0.1047,4.4205z"/><path d="M199.53736,180.81033l9.80175,-0.2085l7.6653,15.639l-7.35135,0.1575z"/><path d="M209.33911,180.60183l-0.69765,-4.71l7.8396,16.818l0.52335,3.531z"/><path d="M216.48106,192.70983l-6.828,0.1035l-10.1157,-16.782l9.1041,-0.1395z"/><path d="M199.53736,176.03133l0.1395,-5.8935l10.08075,18.255l-0.10455,4.4205z"/><path d="M201.83086,185.22783l0.1047,4.395l-12.6882,-17.8455l-0.13965,-5.8605z"/><path d="M201.93556,189.62283l-14.1795,0.4965l-17.41455,-17.6805l18.90585,-0.6615z"/><path d="M170.34151,172.43883l-0.03495,-5.7555l17.4234,19.119l0.0261,4.317z"/><path d="M170.30656,166.68333l18.80115,-0.7665l12.72315,19.311l-14.1009,0.5745z"/><path d="M166.19056,176.86983l27.417,-0.9765l11.598,16.8165l-20.5626,0.732z"/><path d="M205.20556,192.70983v4.2645l-11.598,-15.396v-5.685z"/><path d="M205.20556,196.97433l-7.56045,0.2085l-14.11845,-15.3255l10.0809,-0.279z"/><path d="M197.64511,197.18283c-0.1745,1.326 -0.43615,2.643 -0.78495,3.951l-14.3799,-14.01c0.4651,-1.744 0.8139,-3.4995 1.0464,-5.2665z"/><path d="M196.86016,201.13383c-0.3313,1.29 -0.74985,2.5545 -1.25565,3.7935l-14.79855,-12.7455c0.6744,-1.651 1.2325,-3.337 1.6743,-5.058z"/><path d="M195.60451,204.92733c-0.4884,1.238 -1.10755,2.415 -1.85745,3.531l-15.41775,-11.5665c1,-1.489 1.82555,-3.059 2.47665,-4.71z"/><path d="M193.74706,208.45833l-4.4997,-1.935l-16.9176,-12.213l5.99955,2.5815z"/><path d="M172.32976,194.31033c1.2557,-1.814 2.25565,-3.7675 2.99985,-5.8605l16.1676,13.677c-0.5581,1.57 -1.30805,3.0355 -2.24985,4.3965z"/><path d="M175.32961,188.44983c0.7673,-2.093 1.3719,-4.2325 1.8138,-6.4185l15.71415,15.282c-0.3314,1.64 -0.78485,3.2445 -1.36035,4.8135z"/><path d="M192.85756,197.31333l-8.11005,0.21l-18.41745,-15.213l10.81335,-0.279z"/><path d="M166.33006,182.31033l-0.1395,-5.4405l18.4524,16.572l0.10455,4.0815z"/><path d="M141.04096,192.87933v-26.5785l24.7398,19.215v19.9335z"/><path d="M141.04096,166.30083h7.63905l22.83,19.215h-5.72925z"/><path d="M148.68001,166.30083c4.2323,0 7.5344,1.081 9.9063,3.243l20.3535,18.405c-1.779,-1.622 -4.2556,-2.433 -7.4298,-2.433z"/><path d="M178.93981,187.94883c1.7789,1.604 2.66835,4.0805 2.66835,7.4295l-19.46385,-15.9285c0,-4.464 -1.186,-7.766 -3.558,-9.906z"/><path d="M181.60816,195.37833c0,3.348 -0.88075,5.868 -2.64225,7.56l-20.34465,-13.407c2.3487,-2.256 3.52305,-5.6165 3.52305,-10.0815z"/><path d="M178.96591,202.93833c-1.7615,1.674 -4.1596,2.511 -7.1943,2.511l-22.74285,-12.57c4.0463,0 7.2438,-1.116 9.5925,-3.348z"/><path d="M171.77161,205.44933h-5.99085l-24.7398,-12.57h7.9878z"/><path d="M147.42421,187.75233h0.8721l22.92585,13.8525h-0.654z"/><path d="M148.29631,187.75233c2.3254,0 4.1276,-0.6395 5.4066,-1.9185l21.57435,14.331c-0.9593,0.96 -2.311,1.44 -4.0551,1.44z"/><path d="M153.70291,185.83383c1.279,-1.279 1.9185,-3.407 1.9185,-6.384l21.09465,15.9285c0,2.232 -0.4796,3.8275 -1.4388,4.7865z"/><path d="M155.62141,179.44983c0,-2.976 -0.6395,-5.057 -1.9185,-6.243l21.57435,17.4885c0.9592,0.889 1.4388,2.45 1.4388,4.683z"/><path d="M175.27726,190.69533c-0.9418,-0.907 -2.2935,-1.3605 -4.0551,-1.3605l-22.92585,-17.9415c2.3487,0 4.1509,0.6045 5.4066,1.8135z"/><path d="M171.22216,189.33483h-0.654l-23.14395,-17.9415h0.8721z"/><path d="M170.56816,189.33483v12.27l-23.14395,-13.8525v-16.359z"/><path d="M154.66216,205.81683c-2.9823,0 -5.2583,-0.9245 -6.828,-2.7735l-30.72195,-13.3725c2.0929,2.465 5.1276,3.6975 9.1041,3.6975z"/><path d="M117.11221,189.67083l2.92995,-4.011l29.9895,14.3745l-2.1975,3.009z"/><path d="M120.04216,185.65983c1.7906,1.721 3.6277,2.5815 5.5113,2.5815l28.61175,13.7295c-1.4128,0 -2.79065,-0.6455 -4.13355,-1.9365z"/><path d="M125.55346,188.24133c1.2558,0 2.24415,-0.256 2.96505,-0.768l27.8703,13.9215c-0.5406,0.384 -1.2818,0.576 -2.2236,0.576z"/><path d="M128.51851,187.47333c0.7441,-0.535 1.11615,-1.291 1.11615,-2.268l27.5913,14.4885c0,0.733 -0.27905,1.3 -0.83715,1.701z"/><path d="M129.63466,185.20533c0,-1.255 -0.4767,-2.1735 -1.4301,-2.7555l27.9489,15.1785c0.715,0.436 1.0725,1.1245 1.0725,2.0655z"/><path d="M156.15346,197.62833c-0.7151,-0.454 -2.05805,-0.681 -4.02885,-0.681l-29.29185,-15.4035c2.6277,0 4.4183,0.302 5.3718,0.906z"/><path d="M122.83276,181.54383v-4.4655l29.29185,16.521v3.348z"/><path d="M122.83276,177.07833c2.1626,0 3.6974,-0.302 4.6044,-0.906l28.14075,16.746c-0.6802,0.454 -1.8313,0.681 -3.4533,0.681z"/><path d="M127.43716,176.17233c0.9069,-0.605 1.36035,-1.4655 1.36035,-2.5815l27.80055,17.3925c0,0.837 -0.34005,1.482 -1.02015,1.935z"/><path d="M128.79751,173.59083c0,-0.907 -0.26745,-1.605 -0.80235,-2.094l28.00125,17.916c0.4011,0.367 0.60165,0.8905 0.60165,1.5705z"/><path d="M155.99641,189.41283c-0.3837,-0.366 -0.9418,-0.549 -1.6743,-0.549l-28.55925,-18.099c0.9766,0 1.7207,0.244 2.2323,0.732z"/><path d="M154.32211,188.86383c-1.0813,0 -2.2673,0.558 -3.558,1.674l-29.74515,-17.541c1.7208,-1.488 3.3021,-2.232 4.7439,-2.232z"/><path d="M121.01896,172.99683l-3.2091,-3.906l30.5475,18.5175l2.40675,2.9295z"/><path d="M117.80986,169.09083c2.6277,-2.186 5.3833,-3.279 8.2668,-3.279l28.48095,19.3365c-2.1627,0 -4.22945,0.82 -6.20025,2.46z"/><path d="M126.07666,165.81183c2.8138,0 5.0346,0.6395 6.6624,1.9185l26.81535,18.858c-1.2209,-0.96 -2.8865,-1.44 -4.9968,-1.44z"/><path d="M159.55441,186.58833c1.2208,0.959 1.8312,2.3105 1.8312,4.0545l-26.20485,-17.5065c0,-2.325 -0.8139,-4.127 -2.4417,-5.406z"/><path d="M161.38561,190.64283c0,2.058 -1.0726,3.523 -3.2178,4.395l-27.27735,-16.041c2.8602,-1.163 4.2903,-3.1165 4.2903,-5.8605z"/><path d="M158.16781,195.03783v0.1305l-27.27735,-15.9975v-0.174z"/><path d="M158.16781,195.16833c1.1685,0.366 2.1016,0.959 2.7993,1.779l-26.34435,-15.4035c-0.9302,-1.093 -2.1743,-1.884 -3.7323,-2.373z"/><path d="M160.96711,196.94733c0.6976,0.802 1.0464,1.8225 1.0464,3.0615l-25.99545,-14.3835c0,-1.652 -0.4651,-3.0125 -1.3953,-4.0815z"/><path d="M162.01351,200.00883c0,1.796 -0.70635,3.2175 -2.11905,4.2645l-26.70195,-12.963c1.8837,-1.395 2.82555,-3.29 2.82555,-5.685z"/><path d="M159.89446,204.27333c-1.4127,1.029 -3.1568,1.5435 -5.2323,1.5435l-28.44585,-12.4485c2.7672,0 5.0926,-0.686 6.9762,-2.058z"/></g><g fill="#454545" stroke="#454545" stroke-width="15"><path d="M332.99407,175.96231v2.4765l-23.2485,16.1805v-1.857z"/><path d="M332.99407,178.43881h1.605l-23.6505,16.1805h-1.203z"/><path d="M310.94857,194.61931v-1.857l23.6505,-16.8v2.4765z"/><path d="M310.94857,192.76231h-1.203l23.2485,-16.8h1.605z"/><path d="M315.08257,194.61931v-1.857l25.0275,-16.8v2.4765z"/><path d="M315.08257,192.76231h-1.2555l24.609,-16.8h1.674z"/><path d="M338.43607,175.96231v2.4765l-24.609,16.1805v-1.857z"/><path d="M338.43607,178.43881h1.674l-25.0275,16.1805h-1.2555z"/><path d="M344.33107,186.42631l-2.9655,3.9765l-25.341,13.1895l2.223,-2.982z"/><path d="M316.02457,203.59231c-0.419,-0.802 -1.0555,-1.7875 -1.9095,-2.9565l24.705,-14.1735c1.139,1.558 1.9875,2.8715 2.5455,3.9405z"/><path d="M338.82007,186.46231v9.7665l-24.705,11.733v-7.326z"/><path d="M314.11507,207.96181h-3.4275l23.562,-11.733h4.5705z"/><path d="M310.68757,207.96181v-6.2265l23.562,-13.809v8.3025z"/><path d="M334.24957,187.92631c-1.441,2.442 -2.8595,4.3025 -4.2555,5.5815l-22.4985,12.4125c1.047,-0.959 2.111,-2.354 3.192,-4.185z"/><path d="M307.49557,205.92031c-0.209,-0.784 -0.7495,-1.9785 -1.6215,-3.5835l21.9585,-13.608c1.162,2.14 1.8825,3.733 2.1615,4.779z"/><path d="M305.87407,202.33681c1.413,-1.203 2.7125,-2.8075 3.8985,-4.8135l23.256,-15.213c-1.581,2.675 -3.313,4.8145 -5.196,6.4185z"/><path d="M309.77257,197.52331h-2.826l22.3155,-15.213h3.7665z"/><path d="M306.94657,197.52331v-7.6395l22.3155,-17.7585v10.185z"/><path d="M329.26207,172.12531h4.9875l-23.562,17.7585h-3.741z"/><path d="M310.68757,189.88381v-1.308l23.562,-18.195v1.7445z"/><path d="M310.68757,188.57581h-4.107l22.1925,-18.195h5.4765z"/><path d="M306.58057,188.57581v-3.4005l22.1925,-19.329v4.5345z"/><path d="M328.77307,165.84631h5.4765l-23.562,19.329h-4.107z"/><path d="M310.68757,185.1753v-2.5635l23.562,-20.184v3.4185z"/><path d="M334.24957,162.42781h4.5705l-24.705,20.184h-3.4275z"/><path d="M338.82007,162.42781v3.4185l-24.705,19.329v-2.5635z"/><path d="M338.82007,165.84631h5.232l-26.013,19.329h-3.924z"/><path d="M344.05207,165.84631v4.5345l-26.013,18.195v-3.4005z"/><path d="M318.03907,188.57581h-3.924l24.705,-18.195h5.232z"/><path d="M338.82007,170.38081v1.7445l-24.705,17.7585v-1.308z"/><path d="M338.82007,172.12531h5.232l-26.013,17.7585h-3.924z"/><path d="M344.05207,172.12531v10.185l-26.013,15.213v-7.6395z"/><path d="M318.03907,197.52331h-2.799l25.08,-15.213h3.732z"/><path d="M340.32007,182.31031c1.79,1.744 3.127,3.116 4.011,4.116l-26.0835,14.184c-0.662,-0.75 -1.6645,-1.779 -3.0075,-3.087z"/><path d="M327.06457,192.23881v-1.125l29.022,-17.349v1.5z"/><path d="M327.06457,191.11381h-4.3425l27.573,-17.349h5.7915z"/><path d="M350.29507,173.76481v1.5l-27.573,16.974v-1.125z"/><path d="M350.29507,175.26481h5.7915l-29.022,16.974h-4.3425z"/><path d="M327.06457,196.00531v-1.125l29.022,-16.092v1.5z"/><path d="M327.06457,194.88031h-4.3425l27.573,-16.092h5.7915z"/><path d="M350.29507,178.7883v1.5l-27.573,15.717v-1.125z"/><path d="M350.29507,180.2883h5.7915l-29.022,15.717h-4.3425z"/><path d="M327.06457,199.77331v-1.125l29.022,-14.838v1.5z"/><path d="M327.06457,198.64831h-4.3425l27.573,-14.838h5.7915z"/><path d="M350.29507,183.81031v1.5l-27.573,14.463v-1.125z"/><path d="M350.29507,185.31031h5.7915l-29.022,14.463h-4.3425z"/><path d="M330.75307,202.59781h-2.8245l29.3085,-13.5195h3.7665z"/><path d="M357.23707,189.0783c2.651,1.93 4.5345,3.488 5.6505,4.674l-30.7215,12.351c-0.837,-0.889 -2.2495,-2.0575 -4.2375,-3.5055z"/><path d="M362.88757,193.7523l-4.0455,2.5815l-29.7105,11.706l3.0345,-1.9365z"/><path d="M329.13157,208.03981c-0.82,-0.959 -2.1805,-2.197 -4.0815,-3.714l28.35,-12.9465c2.535,2.024 4.349,3.6755 5.442,4.9545z"/><path d="M325.05007,204.32581l2.799,-1.728l29.283,-13.5195l-3.732,2.301z"/><path d="M327.84907,202.59781h-6.0165l27.2775,-13.5195h8.022z"/><path d="M349.11007,189.07831l3.453,2.301l-28.1415,12.9465l-2.589,-1.728z"/><path d="M352.56307,191.37931c-0.977,0.931 -2.2095,1.8615 -3.6975,2.7915l-27.216,12.2475c1.116,-0.698 2.04,-1.3955 2.772,-2.0925z"/><path d="M348.86557,194.1708c-1.488,0.93 -2.9065,1.6625 -4.2555,2.1975l-26.1525,11.6985c1.012,-0.402 2.076,-0.9515 3.192,-1.6485z"/><path d="M318.45757,208.06681c-0.802,-0.907 -1.648,-1.718 -2.538,-2.433l25.3065,-12.51c1.186,0.954 2.314,2.0355 3.384,3.2445z"/><path d="M315.91957,205.63381c1.919,-0.716 3.6285,-1.728 5.1285,-3.036l27.015,-13.5195c-2,1.744 -4.279,3.0925 -6.837,4.0455z"/><path d="M321.04807,202.59781h-1.806l26.415,-13.5195h2.406z"/><path d="M319.24207,202.59781v-14.31l26.415,-18.2895v19.08z"/><path d="M345.65707,169.99831h4.4295l-27.522,18.2895h-3.3225z"/><path d="M322.56457,188.28781c0.087,-0.488 0.157,-0.9935 0.21,-1.5165l27.591,-18.7965c-0.07,0.697 -0.163,1.3715 -0.279,2.0235z"/><path d="M322.77457,186.77131h-4.422l26.118,-18.7965h5.895z"/><path d="M318.35257,186.77131v-3.297l26.118,-19.8945v4.395z"/><path d="M344.47057,163.57981h17.5455l-30.504,19.8945h-13.1595z"/><path d="M362.01607,163.57981v4.395l-30.504,18.7965v-3.297z"/><path d="M331.51207,186.77131h-4.6575l28.953,-18.7965h6.2085z"/><path d="M355.80757,167.97481c-0.163,0.442 -0.396,1.1165 -0.699,2.0235l-28.776,18.2895c0.226,-0.68 0.4,-1.1855 0.522,-1.5165z"/><path d="M355.10857,169.99831h5.895l-30.2505,18.2895h-4.4205z"/><path d="M361.00357,169.99831v19.08l-30.2505,13.5195v-14.31z"/><path d="M301.56607,170.83531v9.243l-15.3915,15.771v-6.933z"/><path d="M301.56607,180.07831c3.465,-1.93 6.2555,-4.3835 8.3715,-7.3605l-17.484,17.6115c-1.587,2.232 -3.68,4.072 -6.279,5.52z"/><path d="M292.45357,190.32931h-5.5725l15.627,-17.6115h7.4295z"/><path d="M286.88107,190.32931v-2.7735l15.627,-18.5355v3.6975z"/><path d="M302.50807,169.02031c-0.116,0.186 -0.279,0.4885 -0.489,0.9075l-15.504,18.3075c0.157,-0.314 0.279,-0.5405 0.366,-0.6795z"/><path d="M302.01907,169.92781c-0.209,0.419 -0.36,0.7215 -0.453,0.9075l-15.3915,18.081c0.07,-0.14 0.1835,-0.367 0.3405,-0.681z"/><path d="M322.84357,174.91531l3.8715,3.663l-21.678,16.146l-2.904,-2.748z"/><path d="M326.71507,178.5783c-3.511,2.767 -5.5105,4.325 -5.9985,4.674l-20.1795,14.9775c0.366,-0.262 1.866,-1.4305 4.5,-3.5055z"/><path d="M320.71657,183.2523c1.651,3.767 3.825,6.511 6.522,8.232l-21.81,12.9195c-2.023,-1.291 -3.6535,-3.349 -4.8915,-6.174z"/><path d="M327.23857,191.48431c-1.395,1.163 -2.6275,2.6515 -3.6975,4.4655l-20.8845,11.802c0.802,-1.36 1.726,-2.476 2.772,-3.348z"/><path d="M302.65657,207.75181c-2.006,-1.482 -3.5845,-3.435 -4.7355,-5.859l19.3065,-13.7565c1.535,3.232 3.6395,5.8365 6.3135,7.8135z"/><path d="M297.92107,201.89281c-1.151,-2.425 -2.049,-5.39 -2.694,-8.895l18.408,-16.722c0.86,4.674 2.0575,8.6275 3.5925,11.8605z"/><path d="M313.63507,176.27581c-0.814,1.047 -1.651,2.024 -2.511,2.931l-17.781,15.9885c0.645,-0.681 1.273,-1.4135 1.884,-2.1975z"/><path d="M311.12407,179.20681v10.08l-17.781,13.4685v-7.56z"/><path d="M311.12407,189.28681c0.604,-0.116 1.5805,-0.3135 2.9295,-0.5925l-18.513,13.617c-1.012,0.209 -1.7445,0.357 -2.1975,0.444z"/><path d="M314.05357,188.69431c1.349,-0.279 2.372,-0.4885 3.069,-0.6285l-19.2795,13.7745c-0.524,0.104 -1.2915,0.261 -2.3025,0.471z"/><path d="M317.12257,188.06581l0.489,4.6395l-19.4025,12.6135l-0.366,-3.4785z"/><path d="M298.20907,205.31881c-2.285,0.541 -5.695,1.3 -10.23,2.277l15.9945,-11.856c6.046,-1.302 10.592,-2.3135 13.638,-3.0345z"/><path d="M287.97907,207.59581l-1.0725,-3.69l15.636,-13.0845l1.431,4.9185z"/><path d="M302.54257,190.82131c0.349,-0.046 1.57,-0.2665 3.663,-0.6615l-16.551,13.2495c-1.57,0.297 -2.486,0.4625 -2.748,0.4965z"/><path d="M289.65457,203.40931v-4.971l16.551,-14.907v6.6285z"/><path d="M289.65457,198.43831c-0.872,0.611 -1.465,1.0035 -1.779,1.1775l15.9585,-14.514c0.418,-0.233 1.2085,-0.7565 2.3715,-1.5705z"/><path d="M287.87557,199.61581c-0.401,-0.68 -0.968,-1.4735 -1.701,-2.3805l15.3915,-15.3075c0.977,1.209 1.733,2.267 2.268,3.174z"/><path d="M301.56607,181.92781v14.2305l-15.3915,11.751v-10.674z"/><path d="M286.17457,207.90931h-3.7155l14.154,-11.751h4.953z"/><path d="M282.45907,207.90931v-13.368l14.154,-16.2075v17.8245z"/><path d="M282.45907,194.54131c-0.523,0.662 -1.0375,1.246 -1.5435,1.752l13.6395,-15.6225c0.674,-0.674 1.36,-1.453 2.058,-2.337z"/><path d="M280.91557,196.29331c-0.191,-0.506 -0.496,-1.195 -0.915,-2.067l13.3335,-16.311c0.558,1.163 0.965,2.0815 1.221,2.7555z"/><path d="M280.00057,194.22631c-0.419,-0.889 -0.7855,-1.569 -1.0995,-2.04l12.9675,-16.992c0.419,0.628 0.9075,1.535 1.4655,2.721z"/><path d="M291.86857,175.1943c1.605,-1.534 3.1285,-3.4405 4.5705,-5.7195l-14.1105,18.4215c-1.081,1.709 -2.2235,3.139 -3.4275,4.29z"/><path d="M282.32857,187.89631c1.082,-1.71 1.954,-3.4715 2.616,-5.2845l14.982,-20.184c-0.884,2.419 -2.0465,4.768 -3.4875,7.047z"/><path d="M299.92657,162.4278l4.848,1.5705l-16.1925,19.7895l-3.6375,-1.176z"/><path d="M304.77457,163.99831c-0.372,1 -0.9415,2.302 -1.7085,3.906l-15.7665,18.8145c0.576,-1.204 1.0035,-2.181 1.2825,-2.931z"/><path d="M303.06607,167.9043h8.4765l-17.886,18.8145h-6.357z"/><path d="M293.65657,186.7188v-3.7935l17.886,-20.079v5.058z"/><path d="M311.54257,162.84631h5.2665l-19.2015,20.079h-3.951z"/><path d="M316.80907,162.84631v5.058l-19.2015,18.8145v-3.7935z"/><path d="M316.80907,167.9043h8.895l-21.426,18.8145h-6.6705z"/><path d="M325.70407,167.90431v4.8135l-21.426,17.6115v-3.6105z"/><path d="M304.27807,190.32931h-5.886l19.464,-17.6115h7.848z"/><path d="M317.85607,172.71781c0.325,2.21 0.7435,4.2565 1.2555,6.1395l-19.7775,16.0755c-0.384,-1.412 -0.698,-2.9465 -0.942,-4.6035z"/><path d="M299.33407,194.9328c1.116,-1.029 2.049,-2.0145 2.799,-2.9565l20.7105,-17.061c-1,1.256 -2.244,2.57 -3.732,3.942z"/><path d="M268.49857,165.2883h6.6975l-8.799,19.4685h-5.0235z"/><path d="M275.19607,165.2883l-0.1395,9l-8.7645,17.2185l0.105,-6.75z"/><path d="M275.05657,174.2883l13.4295,7.1505l-12.1215,15.4305l-10.0725,-5.3625z"/><path d="M288.48607,181.43881l-2.268,5.5815l-11.5545,14.034l1.701,-4.185z"/><path d="M274.66357,201.05431l-8.424,-4.8135l8.7465,-15.639l11.232,6.4185z"/><path d="M274.98607,180.60181l-0.2085,13.569l-8.694,12.2475l0.156,-10.1775z"/><path d="M266.08357,206.41831h-4.9185l7.0545,-12.2475h6.558z"/><path d="M261.16507,206.41831l0.2085,-21.6615l7.125,-19.4685l-0.279,28.8825z"/><path d="M233.61607,167.31181l20.5455,-1.011l-3.54,19.215l-15.4095,0.7575z"/><path d="M254.16157,166.30081l2.721,4.1505l-4.221,18.177l-2.04,-3.1125z"/><path d="M252.66157,188.62831c-1.639,2.424 -3.374,4.761 -5.205,7.011l2.484,-15.84c2.442,-3 4.756,-6.116 6.942,-9.348z"/><path d="M249.94057,179.79931l9.942,7.0815l-4.971,14.07l-7.455,-5.3115z"/><path d="M254.91157,200.95081l-3.087,4.0545l3.942,-12.7185l4.116,-5.406z"/><path d="M251.82457,205.00531l-7.1685,-6.2265l1.5525,-14.793l9.558,8.301z"/><path d="M244.65607,198.77881c-0.122,0.122 -0.235,0.2355 -0.339,0.3405l1.4385,-14.6805c0.139,-0.14 0.29,-0.291 0.453,-0.453z"/><path d="M244.31707,199.11931c-2.582,2.581 -5.1895,5.1185 -7.8225,7.6125l-1.1685,-12.1425c3.511,-3.325 6.9875,-6.7085 10.4295,-10.1505z"/><path d="M236.49457,206.73181l-3.114,-3.8715l-2.2056,-13.434l4.1511,5.163z"/><path d="M231.17497,189.42631c3.4184,-2.674 6.7091,-5.5225 9.8721,-8.5455l-0.2625,15.57c-2.372,2.267 -4.84,4.4035 -7.404,6.4095z"/><path d="M241.04707,180.8808c2.744,-2.628 5.3135,-5.442 7.7085,-8.442l-2.1885,17.6805c-1.797,2.25 -3.7245,4.3605 -5.7825,6.3315z"/><path d="M246.56707,190.11931l-11.355,0.5235l-1.596,-17.5065l15.1395,-0.6975z"/><path d="M233.61607,173.13631v-5.8245l1.596,18.9615v4.3695z"/><path d="M199.67692,170.13781l8.12745,-0.1755l8.04885,18.3l-6.09555,0.1305z"/><path d="M207.80437,169.96231l-0.83715,-5.685l8.25825,19.7205l0.62775,4.2645z"/><path d="M206.96722,164.27731l6.45315,-0.6975l6.64485,19.8945l-4.83975,0.5235z"/><path d="M220.06522,183.47431l0.68025,4.683l-6.4182,-18.3345l-0.9069,-6.243z"/><path d="M214.32727,169.8228l11.09235,-0.2445l3.645,18.396l-8.31915,0.183z"/><path d="M229.06462,187.97431l-0.10455,4.5525l-3.6801,-16.878l0.13965,-6.0705z"/><path d="M228.96007,192.52681l-7.5345,0.1035l-6.1914,-16.842l10.0458,-0.1395z"/><path d="M221.42557,192.63031l0.52335,3.5055l-6.0171,-15.6735l-0.69765,-4.674z"/><path d="M215.93182,180.46231l9.34815,-0.174l3.6801,15.717l-7.01115,0.1305z"/><path d="M228.96007,196.00531l-0.1308,4.527l-3.7236,-14.2095l0.1743,-6.0345z"/><path d="M228.82927,200.53231l-6.20025,0.1035l-5.7903,-14.1735l8.26695,-0.1395z"/><path d="M222.62902,200.63581l1.07265,7.038l-5.43285,-11.829l-1.4301,-9.3825z"/><path d="M223.70167,207.67381l-4.94445,0.759l-7.08105,-11.577l6.59265,-1.011z"/><path d="M211.67617,196.85581l-1.49985,-10.3245l7.4559,14.157l1.125,7.7445z"/><path d="M217.63222,200.68831l-8.0838,0.1305l-10.1505,-14.1135l10.7784,-0.174z"/><path d="M199.39792,186.70531l0.1395,-5.895l10.1157,15.588l-0.1047,4.4205z"/><path d="M199.53742,180.81031l9.80175,-0.2085l7.6653,15.639l-7.35135,0.1575z"/><path d="M209.33917,180.60181l-0.69765,-4.71l7.8396,16.818l0.52335,3.531z"/><path d="M216.48112,192.70981l-6.828,0.1035l-10.1157,-16.782l9.1041,-0.1395z"/><path d="M199.53742,176.03131l0.1395,-5.8935l10.08075,18.255l-0.10455,4.4205z"/><path d="M201.83092,185.22781l0.1047,4.395l-12.6882,-17.8455l-0.13965,-5.8605z"/><path d="M201.93562,189.62281l-14.1795,0.4965l-17.41455,-17.6805l18.90585,-0.6615z"/><path d="M170.34157,172.43881l-0.03495,-5.7555l17.4234,19.119l0.0261,4.317z"/><path d="M170.30662,166.6833l18.80115,-0.7665l12.72315,19.311l-14.1009,0.5745z"/><path d="M166.19062,176.86981l27.417,-0.9765l11.598,16.8165l-20.5626,0.732z"/><path d="M205.20562,192.70981v4.2645l-11.598,-15.396v-5.685z"/><path d="M205.20562,196.97431l-7.56045,0.2085l-14.11845,-15.3255l10.0809,-0.279z"/><path d="M197.64517,197.1828c-0.1745,1.326 -0.43615,2.643 -0.78495,3.951l-14.3799,-14.01c0.4651,-1.744 0.8139,-3.4995 1.0464,-5.2665z"/><path d="M196.86022,201.13381c-0.3313,1.29 -0.74985,2.5545 -1.25565,3.7935l-14.79855,-12.7455c0.6744,-1.651 1.2325,-3.337 1.6743,-5.058z"/><path d="M195.60457,204.92731c-0.4884,1.238 -1.10755,2.415 -1.85745,3.531l-15.41775,-11.5665c1,-1.489 1.82555,-3.059 2.47665,-4.71z"/><path d="M193.74712,208.45831l-4.4997,-1.935l-16.9176,-12.213l5.99955,2.5815z"/><path d="M172.32982,194.31031c1.2557,-1.814 2.25565,-3.7675 2.99985,-5.8605l16.1676,13.677c-0.5581,1.57 -1.30805,3.0355 -2.24985,4.3965z"/><path d="M175.32967,188.4498c0.7673,-2.093 1.3719,-4.2325 1.8138,-6.4185l15.71415,15.282c-0.3314,1.64 -0.78485,3.2445 -1.36035,4.8135z"/><path d="M192.85762,197.31331l-8.11005,0.21l-18.41745,-15.213l10.81335,-0.279z"/><path d="M166.33012,182.31031l-0.1395,-5.4405l18.4524,16.572l0.10455,4.0815z"/><path d="M141.04102,192.87931v-26.5785l24.7398,19.215v19.9335z"/><path d="M141.04102,166.30081h7.63905l22.83,19.215h-5.72925z"/><path d="M148.68007,166.30081c4.2323,0 7.5344,1.081 9.9063,3.243l20.3535,18.405c-1.779,-1.622 -4.2556,-2.433 -7.4298,-2.433z"/><path d="M178.93987,187.94881c1.7789,1.604 2.66835,4.0805 2.66835,7.4295l-19.46385,-15.9285c0,-4.464 -1.186,-7.766 -3.558,-9.906z"/><path d="M181.60822,195.37831c0,3.348 -0.88075,5.868 -2.64225,7.56l-20.34465,-13.407c2.3487,-2.256 3.52305,-5.6165 3.52305,-10.0815z"/><path d="M178.96597,202.93831c-1.7615,1.674 -4.1596,2.511 -7.1943,2.511l-22.74285,-12.57c4.0463,0 7.2438,-1.116 9.5925,-3.348z"/><path d="M171.77167,205.44931h-5.99085l-24.7398,-12.57h7.9878z"/><path d="M147.42427,187.7523h0.8721l22.92585,13.8525h-0.654z"/><path d="M148.29637,187.7523c2.3254,0 4.1276,-0.6395 5.4066,-1.9185l21.57435,14.331c-0.9593,0.96 -2.311,1.44 -4.0551,1.44z"/><path d="M153.70297,185.83381c1.279,-1.279 1.9185,-3.407 1.9185,-6.384l21.09465,15.9285c0,2.232 -0.4796,3.8275 -1.4388,4.7865z"/><path d="M155.62147,179.44981c0,-2.976 -0.6395,-5.057 -1.9185,-6.243l21.57435,17.4885c0.9592,0.889 1.4388,2.45 1.4388,4.683z"/><path d="M175.27732,190.69531c-0.9418,-0.907 -2.2935,-1.3605 -4.0551,-1.3605l-22.92585,-17.9415c2.3487,0 4.1509,0.6045 5.4066,1.8135z"/><path d="M171.22222,189.33481h-0.654l-23.14395,-17.9415h0.8721z"/><path d="M170.56822,189.33481v12.27l-23.14395,-13.8525v-16.359z"/><path d="M154.66222,205.81681c-2.9823,0 -5.2583,-0.9245 -6.828,-2.7735l-30.72195,-13.3725c2.0929,2.465 5.1276,3.6975 9.1041,3.6975z"/><path d="M117.11227,189.67081l2.92995,-4.011l29.9895,14.3745l-2.1975,3.009z"/><path d="M120.04222,185.65981c1.7906,1.721 3.6277,2.5815 5.5113,2.5815l28.61175,13.7295c-1.4128,0 -2.79065,-0.6455 -4.13355,-1.9365z"/><path d="M125.55352,188.24131c1.2558,0 2.24415,-0.256 2.96505,-0.768l27.8703,13.9215c-0.5406,0.384 -1.2818,0.576 -2.2236,0.576z"/><path d="M128.51857,187.47331c0.7441,-0.535 1.11615,-1.291 1.11615,-2.268l27.5913,14.4885c0,0.733 -0.27905,1.3 -0.83715,1.701z"/><path d="M129.63472,185.20531c0,-1.255 -0.4767,-2.1735 -1.4301,-2.7555l27.9489,15.1785c0.715,0.436 1.0725,1.1245 1.0725,2.0655z"/><path d="M156.15352,197.62831c-0.7151,-0.454 -2.05805,-0.681 -4.02885,-0.681l-29.29185,-15.4035c2.6277,0 4.4183,0.302 5.3718,0.906z"/><path d="M122.83282,181.54381v-4.4655l29.29185,16.521v3.348z"/><path d="M122.83282,177.07831c2.1626,0 3.6974,-0.302 4.6044,-0.906l28.14075,16.746c-0.6802,0.454 -1.8313,0.681 -3.4533,0.681z"/><path d="M127.43722,176.17231c0.9069,-0.605 1.36035,-1.4655 1.36035,-2.5815l27.80055,17.3925c0,0.837 -0.34005,1.482 -1.02015,1.935z"/><path d="M128.79757,173.59081c0,-0.907 -0.26745,-1.605 -0.80235,-2.094l28.00125,17.916c0.4011,0.367 0.60165,0.8905 0.60165,1.5705z"/><path d="M155.99647,189.41281c-0.3837,-0.366 -0.9418,-0.549 -1.6743,-0.549l-28.55925,-18.099c0.9766,0 1.7207,0.244 2.2323,0.732z"/><path d="M154.32217,188.86381c-1.0813,0 -2.2673,0.558 -3.558,1.674l-29.74515,-17.541c1.7208,-1.488 3.3021,-2.232 4.7439,-2.232z"/><path d="M121.01902,172.99681l-3.2091,-3.906l30.5475,18.5175l2.40675,2.9295z"/><path d="M117.80992,169.09081c2.6277,-2.186 5.3833,-3.279 8.2668,-3.279l28.48095,19.3365c-2.1627,0 -4.22945,0.82 -6.20025,2.46z"/><path d="M126.07672,165.81181c2.8138,0 5.0346,0.6395 6.6624,1.9185l26.81535,18.858c-1.2209,-0.96 -2.8865,-1.44 -4.9968,-1.44z"/><path d="M159.55447,186.58831c1.2208,0.959 1.8312,2.3105 1.8312,4.0545l-26.20485,-17.5065c0,-2.325 -0.8139,-4.127 -2.4417,-5.406z"/><path d="M161.38567,190.64281c0,2.058 -1.0726,3.523 -3.2178,4.395l-27.27735,-16.041c2.8602,-1.163 4.2903,-3.1165 4.2903,-5.8605z"/><path d="M158.16787,195.03781v0.1305l-27.27735,-15.9975v-0.174z"/><path d="M158.16787,195.16831c1.1685,0.366 2.1016,0.959 2.7993,1.779l-26.34435,-15.4035c-0.9302,-1.093 -2.1743,-1.884 -3.7323,-2.373z"/><path d="M160.96717,196.94731c0.6976,0.802 1.0464,1.8225 1.0464,3.0615l-25.99545,-14.3835c0,-1.652 -0.4651,-3.0125 -1.3953,-4.0815z"/><path d="M162.01357,200.00881c0,1.796 -0.70635,3.2175 -2.11905,4.2645l-26.70195,-12.963c1.8837,-1.395 2.82555,-3.29 2.82555,-5.685z"/><path d="M159.89452,204.27331c-1.4127,1.029 -3.1568,1.5435 -5.2323,1.5435l-28.44585,-12.4485c2.7672,0 5.0926,-0.686 6.9762,-2.058z"/></g><path d="M332.99439,176.30262v2.47659h1.60455v-2.47659zM340.11023,178.77921v-2.47659h-1.67432v2.47659zM344.3309,186.7671l-2.96493,3.9765c-0.5581,-1.06971 -1.40689,-2.38358 -2.54636,-3.94162v9.76684h-4.56949v-8.30182c-1.44177,2.44172 -2.86029,4.30207 -4.25555,5.58106c-0.27905,-1.04645 -0.99993,-2.63937 -2.16265,-4.77877c1.8836,-1.60456 3.61605,-3.74397 5.19735,-6.41822h-3.76721v-10.18543h4.98806v-1.74408h-5.47641v-4.53461h5.47641v-3.41839h4.56949v3.41839h5.23224v4.53461h-5.23224v1.74408h5.23224v10.18543h-3.73233c1.79059,1.74408 3.12772,3.11609 4.01138,4.11603zM356.08601,175.60499v-1.49991h-5.79035v1.49991zM356.08601,180.62793v-1.49991h-5.79035v1.49991zM356.08601,185.65088v-1.4999h-5.79035v1.4999zM361.0043,189.4181h-3.76721c2.651,1.93011 4.53461,3.48815 5.65082,4.67413l-4.04627,2.58123c-1.09295,-1.27899 -2.90679,-2.93005 -5.44152,-4.95318l3.73233,-2.30218h-8.02276l3.45327,2.30218c-0.97668,0.93018 -2.20916,1.86036 -3.69744,2.79053c-1.48829,0.93018 -2.90681,1.66269 -4.25556,2.19754c-1.0697,-1.20923 -2.19754,-2.29056 -3.38352,-3.24399c2.55799,-0.95343 4.83692,-2.30218 6.83679,-4.04626h-2.40683v-19.08023h4.42997c0.11627,-0.65113 0.20928,-1.32551 0.27904,-2.02314h-5.89498v-4.39507h17.54544v4.39507h-6.20892c-0.16278,0.44183 -0.39533,1.11621 -0.69764,2.02314h5.89499zM301.56608,171.17502v9.24363c3.4649,-1.93012 6.25542,-4.38346 8.37157,-7.36002h-7.42977v-3.69745c-0.11628,0.18604 -0.27906,0.48835 -0.48835,0.90693c-0.20929,0.41858 -0.36044,0.72088 -0.45345,0.90691zM322.84385,175.25618l3.87184,3.66256c-3.51141,2.76727 -5.51128,4.32532 -5.99962,4.67414c1.65106,3.76721 3.82534,6.51122 6.52285,8.23204c-1.39526,1.16272 -2.62774,2.65101 -3.69744,4.46486c-2.67426,-1.97663 -4.77878,-4.58113 -6.31357,-7.81349c-1.53479,-3.23236 -2.73239,-7.1856 -3.5928,-11.85973c-0.81391,1.04644 -1.65107,2.02312 -2.51148,2.93005v10.08078c0.60461,-0.11628 1.58129,-0.31394 2.93005,-0.59299c1.34875,-0.27905 2.37195,-0.48834 3.06959,-0.62787l0.48834,4.63926c-3.04633,0.72088 -7.59257,1.73244 -13.63871,3.03469l-1.43014,-4.9183c0.34882,-0.04647 1.56967,-0.26738 3.66256,-0.66275v-6.62751c-1.16272,0.8139 -1.95337,1.33713 -2.37195,1.56968c-0.53485,-0.90692 -1.29061,-1.965 -2.26729,-3.17423v14.23169h-4.9532v-17.82449c-0.69763,0.88366 -1.38363,1.66268 -2.05801,2.33706c-0.2558,-0.67438 -0.66275,-1.59293 -1.22085,-2.75565c-0.55811,-1.18597 -1.04646,-2.09289 -1.46504,-2.72076c1.60456,-1.53479 3.12773,-3.44165 4.5695,-5.72058c1.44177,-2.27893 2.60449,-4.62762 3.48816,-7.04608l4.84854,1.56967c-0.37207,0.99994 -0.9418,2.30219 -1.70919,3.90674h8.47621v-5.05784h5.26713v5.05784h8.89481v4.81366h-7.84836c0.32556,2.20917 0.74414,4.25556 1.25574,6.13916c1.48828,-1.37201 2.73239,-2.68588 3.73233,-3.94161zM268.49832,165.62885h6.69726l-0.1395,8.99946l13.42941,7.15072l-2.26731,5.58105l-11.23186,-6.41821l-0.2093,13.56894h-6.55773zM233.61674,167.65199l20.54524,-1.01157l2.72078,4.1509c-2.18592,3.23236 -4.49974,6.34845 -6.94145,9.34827l9.94127,7.08096l-4.11603,5.40665l-9.55757,-8.30181c-0.16278,0.16278 -0.31393,0.31393 -0.45345,0.45345c-3.44166,3.44166 -6.91819,6.82517 -10.4296,10.15054l-4.1509,-5.16247c3.41839,-2.67425 6.70888,-5.52291 9.87148,-8.54598c2.74402,-2.62775 5.31363,-5.44154 7.70883,-8.44136l-15.1386,0.69764zM199.67695,170.47739l8.12741,-0.17441l-0.83715,-5.6857l6.45309,-0.69762l0.90693,6.24379l11.09233,-0.24417l-0.1395,6.06941l-10.04589,0.1395l0.69763,4.67412l9.34825,-0.17441l-0.1744,6.03452l-8.26693,0.1395l1.43014,9.38314l-6.59262,1.01157l-1.49991,-10.32495l-10.77841,0.17441l0.1395,-5.89499l9.80174,-0.20929l-0.69764,-4.70901l-9.1041,0.1395zM189.10783,166.25672l0.1395,5.86011l-18.90582,0.66274l-0.0348,-5.75545zM166.19062,177.20954l27.41694,-0.97668v5.68569l-10.08078,0.27906c-0.23255,1.76733 -0.58136,3.52303 -1.04644,5.26711c-0.44184,1.72083 -0.99995,3.40678 -1.67433,5.05784c-0.65112,1.65106 -1.47665,3.22073 -2.47659,4.70901l-5.99962,-2.58123c1.25573,-1.81384 2.25566,-3.76721 2.9998,-5.86011c0.7674,-2.0929 1.37202,-4.23231 1.81385,-6.41822l-10.81329,0.27906zM141.04099,193.22019v-26.57977h7.63908c4.2323,0 7.53442,1.08133 9.90636,3.24399c2.37195,2.1394 3.55793,5.44152 3.55793,9.90637c0,4.46484 -1.17435,7.8251 -3.52303,10.08078c-2.3487,2.23242 -5.54618,3.34863 -9.59244,3.34863zM147.42433,188.09259h0.87204c2.32544,0 4.12765,-0.63949 5.40664,-1.91848c1.27899,-1.27899 1.91849,-3.40677 1.91849,-6.38333c0,-2.97657 -0.6395,-5.05784 -1.91849,-6.24381c-1.25574,-1.20923 -3.05796,-1.81384 -5.40664,-1.81384h-0.87204zM126.21633,193.70853c-3.97651,0 -7.01121,-1.23248 -9.1041,-3.69745l2.93005,-4.01138c1.79059,1.72082 3.62769,2.58123 5.51129,2.58123c1.25574,0 2.24406,-0.25579 2.96495,-0.76738c0.74414,-0.53485 1.11621,-1.29062 1.11621,-2.26731c0,-1.25574 -0.47671,-2.17429 -1.43014,-2.75565c-0.95343,-0.60461 -2.74402,-0.90692 -5.37177,-0.90692v-4.46484c2.16266,0 3.69745,-0.30231 4.60437,-0.90693c0.90692,-0.60461 1.36038,-1.46502 1.36038,-2.58123c0,-0.90692 -0.26743,-1.60455 -0.80227,-2.0929c-0.5116,-0.48834 -1.25574,-0.73251 -2.23242,-0.73251c-1.44177,0 -3.02307,0.74414 -4.7439,2.23242l-3.2091,-3.90674c2.62774,-2.18591 5.38339,-3.27886 8.26694,-3.27886c2.81378,0 5.03458,0.63949 6.66239,1.91848c1.62781,1.27899 2.44171,3.08121 2.44171,5.40665c0,2.74402 -1.43015,4.69739 -4.29045,5.86011v0.1744c1.55805,0.48834 2.80216,1.27899 3.73233,2.37195c0.93018,1.0697 1.39527,2.43008 1.39527,4.08114c0,2.39521 -0.94181,4.29045 -2.82542,5.68571c-1.8836,1.37201 -4.20903,2.05801 -6.9763,2.05801z" fill="#ffffff" stroke="#808080" stroke-width="15"/><path d="M332.99435,176.30258v2.47659h1.60455v-2.47659zM340.11018,178.77917v-2.47659h-1.67431v2.47659zM344.33085,186.76706l-2.96493,3.9765c-0.5581,-1.06971 -1.40688,-2.38359 -2.54635,-3.94163v9.76685h-4.5695v-8.30183c-1.44177,2.44172 -2.86028,4.30208 -4.25554,5.58107c-0.27905,-1.04645 -0.99994,-2.63938 -2.16266,-4.77878c1.8836,-1.60456 3.61605,-3.74396 5.19735,-6.41821h-3.7672v-10.18544h4.98805v-1.74408h-5.47641v-4.5346h5.47641v-3.4184h4.5695v3.4184h5.23224v4.5346h-5.23224v1.74408h5.23224v10.18544h-3.73233c1.79059,1.74408 3.12771,3.11609 4.01137,4.11603zM356.08596,175.60494v-1.49991h-5.79034v1.49991zM356.08596,180.62789v-1.49991h-5.79034v1.49991zM356.08596,185.65083v-1.49989h-5.79034v1.49989zM361.00425,189.41805h-3.7672c2.651,1.93011 4.5346,3.48816 5.65081,4.67414l-4.04626,2.58123c-1.09295,-1.27899 -2.90679,-2.93005 -5.44152,-4.95318l3.73233,-2.30219h-8.02277l3.45327,2.30219c-0.97668,0.93018 -2.20916,1.86035 -3.69744,2.79052c-1.48829,0.93018 -2.90681,1.6627 -4.25556,2.19755c-1.0697,-1.20923 -2.19754,-2.29056 -3.38352,-3.24399c2.55799,-0.95343 4.83692,-2.30219 6.83679,-4.04627h-2.40682v-19.08022h4.42996c0.11627,-0.65113 0.20929,-1.32551 0.27905,-2.02314h-5.89499v-4.39508h17.54544v4.39508h-6.20892c-0.16278,0.44183 -0.39532,1.11621 -0.69763,2.02314h5.89498zM301.56603,171.17498v9.24363c3.4649,-1.93012 6.25543,-4.38346 8.37158,-7.36002h-7.42977v-3.69746c-0.11628,0.18604 -0.27907,0.48835 -0.48836,0.90693c-0.20929,0.41858 -0.36044,0.72089 -0.45345,0.90692zM322.8438,175.25613l3.87185,3.66257c-3.51141,2.76727 -5.51129,4.32531 -5.99963,4.67413c1.65106,3.76721 3.82535,6.51123 6.52286,8.23205c-1.39526,1.16272 -2.62774,2.651 -3.69744,4.46485c-2.67426,-1.97663 -4.77879,-4.58112 -6.31358,-7.81348c-1.53479,-3.23236 -2.73239,-7.18561 -3.5928,-11.85974c-0.81391,1.04644 -1.65107,2.02313 -2.51148,2.93006v10.08078c0.60461,-0.11628 1.5813,-0.31395 2.93006,-0.593c1.34875,-0.27905 2.37194,-0.48834 3.06958,-0.62787l0.48834,4.63926c-3.04633,0.72088 -7.59256,1.73245 -13.6387,3.0347l-1.43015,-4.91831c0.34882,-0.04647 1.56968,-0.26738 3.66257,-0.66274v-6.62751c-1.16272,0.8139 -1.95337,1.33712 -2.37195,1.56967c-0.53485,-0.90692 -1.29062,-1.96499 -2.2673,-3.17422v14.23168h-4.95319v-17.82448c-0.69763,0.88366 -1.38364,1.66268 -2.05802,2.33706c-0.2558,-0.67438 -0.66275,-1.59293 -1.22085,-2.75565c-0.55811,-1.18597 -1.04645,-2.09289 -1.46503,-2.72076c1.60456,-1.53479 3.12772,-3.44165 4.56949,-5.72058c1.44177,-2.27893 2.60449,-4.62763 3.48816,-7.04609l4.84854,1.56968c-0.37207,0.99994 -0.9418,2.30218 -1.70919,3.90673h8.47622v-5.05783h5.26713v5.05783h8.8948v4.81367h-7.84836c0.32556,2.20917 0.74414,4.25555 1.25574,6.13915c1.48828,-1.37201 2.73239,-2.68588 3.73233,-3.94161zM268.49828,165.6288h6.69726l-0.1395,8.99946l13.42941,7.15073l-2.26731,5.58105l-11.23187,-6.41822l-0.20929,13.56894h-6.55773zM233.61669,167.65194l20.54525,-1.01157l2.72077,4.15091c-2.18592,3.23236 -4.49973,6.34845 -6.94144,9.34827l9.94126,7.08096l-4.11603,5.40664l-9.55756,-8.30181c-0.16278,0.16278 -0.31393,0.31393 -0.45345,0.45345c-3.44166,3.44166 -6.9182,6.82518 -10.42961,10.15055l-4.1509,-5.16248c3.41839,-2.67425 6.70888,-5.52291 9.87148,-8.54598c2.74402,-2.62775 5.31363,-5.44153 7.70883,-8.44135l-15.1386,0.69763zM199.6769,170.47734l8.1274,-0.1744l-0.83715,-5.68571l6.45309,-0.69762l0.90693,6.2438l11.09234,-0.24417l-0.1395,6.0694l-10.04589,0.1395l0.69764,4.67412l9.34825,-0.1744l-0.17441,6.03451l-8.26693,0.1395l1.43014,9.38315l-6.59262,1.01157l-1.49991,-10.32495l-10.77841,0.1744l0.1395,-5.89498l9.80174,-0.2093l-0.69764,-4.70901l-9.1041,0.1395zM189.10778,166.25667l0.1395,5.86011l-18.90582,0.66275l-0.0348,-5.75546zM166.19057,177.20949l27.41694,-0.97668v5.68569l-10.08078,0.27906c-0.23255,1.76733 -0.58137,3.52304 -1.04645,5.26712c-0.44184,1.72083 -0.99995,3.40677 -1.67433,5.05783c-0.65112,1.65106 -1.47665,3.22073 -2.47659,4.70901l-5.99963,-2.58123c1.25573,-1.81384 2.25566,-3.76721 2.99981,-5.86011c0.7674,-2.0929 1.37202,-4.2323 1.81384,-6.41821l-10.81329,0.27906zM141.04094,193.22015v-26.57978h7.63908c4.2323,0 7.53442,1.08133 9.90636,3.24399c2.37195,2.1394 3.55793,5.44153 3.55793,9.90638c0,4.46484 -1.17435,7.8251 -3.52304,10.08078c-2.3487,2.23242 -5.54618,3.34863 -9.59244,3.34863zM147.42428,188.09255h0.87204c2.32544,0 4.12765,-0.6395 5.40664,-1.91849c1.27899,-1.27899 1.91848,-3.40676 1.91848,-6.38332c0,-2.97657 -0.63949,-5.05784 -1.91848,-6.24381c-1.25574,-1.20923 -3.05796,-1.81385 -5.40665,-1.81385h-0.87204zM126.21627,193.70849c-3.97651,0 -7.01121,-1.23249 -9.1041,-3.69746l2.93005,-4.01137c1.79059,1.72082 3.62768,2.58123 5.51128,2.58123c1.25574,0 2.24406,-0.2558 2.96495,-0.76739c0.74414,-0.53485 1.11621,-1.29062 1.11621,-2.26731c0,-1.25574 -0.47671,-2.17429 -1.43015,-2.75565c-0.95343,-0.60461 -2.74402,-0.90691 -5.37177,-0.90691v-4.46484c2.16266,0 3.69745,-0.30231 4.60437,-0.90693c0.90692,-0.60461 1.36038,-1.46502 1.36038,-2.58123c0,-0.90692 -0.26743,-1.60456 -0.80227,-2.09291c-0.5116,-0.48834 -1.25574,-0.73251 -2.23242,-0.73251c-1.44177,0 -3.02307,0.74414 -4.7439,2.23242l-3.2091,-3.90673c2.62774,-2.18591 5.38338,-3.27887 8.26693,-3.27887c2.81378,0 5.03458,0.6395 6.66239,1.91849c1.62781,1.27899 2.44171,3.0812 2.44171,5.40664c0,2.74402 -1.43015,4.69739 -4.29045,5.86011v0.17441c1.55805,0.48834 2.80216,1.27899 3.73233,2.37195c0.93018,1.0697 1.39527,2.43008 1.39527,4.08114c0,2.39521 -0.94181,4.29044 -2.82542,5.6857c-1.8836,1.37201 -4.20903,2.05802 -6.9763,2.05802z" fill="#ffffff" stroke="#ffffff" stroke-width="7.5"/><path d="M332.99433,176.30256v2.47659h1.60455v-2.47659zM340.11017,178.77915v-2.47659h-1.67432v2.47659zM344.33084,186.76704l-2.96493,3.9765c-0.5581,-1.06971 -1.40689,-2.38358 -2.54636,-3.94162v9.76684h-4.56949v-8.30182c-1.44177,2.44172 -2.86029,4.30207 -4.25555,5.58106c-0.27905,-1.04645 -0.99993,-2.63937 -2.16265,-4.77877c1.8836,-1.60456 3.61605,-3.74397 5.19735,-6.41822h-3.76721v-10.18543h4.98806v-1.74408h-5.47641v-4.53461h5.47641v-3.41839h4.56949v3.41839h5.23224v4.53461h-5.23224v1.74408h5.23224v10.18543h-3.73233c1.79059,1.74408 3.12772,3.11609 4.01138,4.11603zM356.08595,175.60493v-1.49991h-5.79035v1.49991zM356.08595,180.62787v-1.49991h-5.79035v1.49991zM356.08595,185.65082v-1.4999h-5.79035v1.4999zM361.00424,189.41804h-3.76721c2.651,1.93011 4.53461,3.48815 5.65082,4.67413l-4.04627,2.58123c-1.09295,-1.27899 -2.90679,-2.93005 -5.44152,-4.95318l3.73233,-2.30218h-8.02276l3.45327,2.30218c-0.97668,0.93018 -2.20916,1.86036 -3.69744,2.79053c-1.48829,0.93018 -2.90681,1.66269 -4.25556,2.19754c-1.0697,-1.20923 -2.19754,-2.29056 -3.38352,-3.24399c2.55799,-0.95343 4.83692,-2.30218 6.83679,-4.04626h-2.40683v-19.08023h4.42997c0.11627,-0.65113 0.20928,-1.32551 0.27904,-2.02314h-5.89498v-4.39507h17.54544v4.39507h-6.20892c-0.16278,0.44183 -0.39533,1.11621 -0.69764,2.02314h5.89499zM301.56602,171.17496v9.24363c3.4649,-1.93012 6.25542,-4.38346 8.37157,-7.36002h-7.42977v-3.69745c-0.11628,0.18604 -0.27906,0.48835 -0.48835,0.90693c-0.20929,0.41858 -0.36044,0.72088 -0.45345,0.90691zM322.84379,175.25612l3.87184,3.66256c-3.51141,2.76727 -5.51128,4.32532 -5.99962,4.67414c1.65106,3.76721 3.82534,6.51122 6.52285,8.23204c-1.39526,1.16272 -2.62774,2.65101 -3.69744,4.46486c-2.67426,-1.97663 -4.77878,-4.58113 -6.31357,-7.81349c-1.53479,-3.23236 -2.73239,-7.1856 -3.5928,-11.85973c-0.81391,1.04644 -1.65107,2.02312 -2.51148,2.93005v10.08078c0.60461,-0.11628 1.58129,-0.31394 2.93005,-0.59299c1.34875,-0.27905 2.37195,-0.48834 3.06959,-0.62787l0.48834,4.63926c-3.04633,0.72088 -7.59257,1.73244 -13.63871,3.03469l-1.43014,-4.9183c0.34882,-0.04647 1.56967,-0.26738 3.66256,-0.66275v-6.62751c-1.16272,0.8139 -1.95337,1.33713 -2.37195,1.56968c-0.53485,-0.90692 -1.29061,-1.965 -2.26729,-3.17423v14.23169h-4.9532v-17.82449c-0.69763,0.88366 -1.38363,1.66268 -2.05801,2.33706c-0.2558,-0.67438 -0.66275,-1.59293 -1.22085,-2.75565c-0.55811,-1.18597 -1.04646,-2.09289 -1.46504,-2.72076c1.60456,-1.53479 3.12773,-3.44165 4.5695,-5.72058c1.44177,-2.27893 2.60449,-4.62762 3.48816,-7.04608l4.84854,1.56967c-0.37207,0.99994 -0.9418,2.30219 -1.70919,3.90674h8.47621v-5.05784h5.26713v5.05784h8.89481v4.81366h-7.84836c0.32556,2.20917 0.74414,4.25556 1.25574,6.13916c1.48828,-1.37201 2.73239,-2.68588 3.73233,-3.94161zM268.49826,165.62879h6.69726l-0.1395,8.99946l13.42941,7.15072l-2.26731,5.58105l-11.23186,-6.41821l-0.2093,13.56894h-6.55773zM233.61668,167.65193l20.54524,-1.01157l2.72078,4.1509c-2.18592,3.23236 -4.49974,6.34845 -6.94145,9.34827l9.94127,7.08096l-4.11603,5.40665l-9.55757,-8.30181c-0.16278,0.16278 -0.31393,0.31393 -0.45345,0.45345c-3.44166,3.44166 -6.91819,6.82517 -10.4296,10.15054l-4.15091,-5.16247c3.41839,-2.67425 6.70889,-5.52291 9.87149,-8.54598c2.74402,-2.62775 5.31363,-5.44154 7.70883,-8.44136l-15.13861,0.69764zM199.67688,170.47733l8.12741,-0.17441l-0.83716,-5.6857l6.45309,-0.69762l0.90692,6.24379l11.09234,-0.24417l-0.13953,6.06941l-10.0459,0.1395l0.69763,4.67412l9.34827,-0.17441l-0.17441,6.03452l-8.26694,0.1395l1.43015,9.38314l-6.59262,1.01157l-1.49991,-10.32495l-10.77841,0.17441l0.13953,-5.89499l9.80173,-0.20929l-0.69763,-4.70901l-9.1041,0.1395zM189.10776,166.25666l0.13953,5.86011l-18.90582,0.66274l-0.03487,-5.75545zM166.19055,177.20948l27.41693,-0.97668v5.68569l-10.08078,0.27906c-0.23254,1.76733 -0.58136,3.52303 -1.04645,5.26711c-0.44183,1.72083 -0.99994,3.40678 -1.67432,5.05784c-0.65112,1.65106 -1.47665,3.22073 -2.47659,4.70901l-5.99963,-2.58123c1.25574,-1.81384 2.25568,-3.76721 2.99982,-5.86011c0.7674,-2.0929 1.37201,-4.23231 1.81384,-6.41822l-10.81329,0.27906zM141.04093,193.22013v-26.57977h7.63907c4.2323,0 7.53442,1.08133 9.90637,3.24398c2.37195,2.13941 3.55792,5.44153 3.55792,9.90638c0,4.46484 -1.17435,7.8251 -3.52304,10.08078c-2.34869,2.23242 -5.54617,3.34863 -9.59244,3.34863zM147.42426,188.09253h0.87204c2.32544,0 4.12766,-0.63949 5.40665,-1.91848c1.27899,-1.27899 1.91849,-3.40677 1.91849,-6.38333c0,-2.97657 -0.6395,-5.05784 -1.91849,-6.24381c-1.25574,-1.20923 -3.05795,-1.81384 -5.40665,-1.81384h-0.87204zM126.21625,193.70847c-3.9765,0 -7.0112,-1.23248 -9.1041,-3.69745l2.93005,-4.01138c1.79059,1.72082 3.62769,2.58123 5.51129,2.58123c1.25574,0 2.24405,-0.25579 2.96493,-0.76738c0.74414,-0.53485 1.11621,-1.29062 1.11621,-2.26731c0,-1.25574 -0.47671,-2.17429 -1.43014,-2.75565c-0.95343,-0.60461 -2.74402,-0.90692 -5.37177,-0.90692v-4.46484c2.16266,0 3.69745,-0.30231 4.60437,-0.90693c0.90692,-0.60461 1.36038,-1.46502 1.36038,-2.58123c0,-0.90692 -0.26743,-1.60456 -0.80228,-2.09291c-0.5116,-0.48834 -1.25574,-0.73251 -2.23242,-0.73251c-1.44177,0 -3.02307,0.74414 -4.7439,2.23243l-3.20911,-3.90674c2.62775,-2.18591 5.38339,-3.27887 8.26694,-3.27887c2.81378,0 5.03458,0.6395 6.66238,1.91849c1.62781,1.27899 2.44171,3.0812 2.44171,5.40664c0,2.74403 -1.43015,4.6974 -4.29044,5.86012v0.1744c1.55804,0.48834 2.80215,1.27899 3.73233,2.37195c0.93018,1.0697 1.39526,2.43008 1.39526,4.08114c0,2.39521 -0.9418,4.29044 -2.82541,5.68571c-1.88361,1.37201 -4.20905,2.05801 -6.97632,2.05801z" fill="#5da797" stroke="none" stroke-width="56.25"/></g></g></svg>